<mxfile host="app.diagrams.net" modified="2023-04-04T16:40:44.581Z" agent="Mozilla/5.0 (Windows NT 10.0; Win64; x64) AppleWebKit/537.36 (KHTML, like Gecko) Chrome/111.0.0.0 Safari/537.36" etag="--tFZ48DpxLw7VOuuIuR" version="21.1.4" type="device">
  <diagram id="6a731a19-8d31-9384-78a2-239565b7b9f0" name="Page-1">
    <mxGraphModel dx="1514" dy="753" grid="1" gridSize="10" guides="1" tooltips="1" connect="1" arrows="1" fold="1" page="1" pageScale="1" pageWidth="1654" pageHeight="1169" background="#85a6c7" math="0" shadow="0">
      <root>
        <mxCell id="0" />
        <mxCell id="1" parent="0" />
        <mxCell id="eEPwUyeg-tfcytRayrMm-2170" style="edgeStyle=orthogonalEdgeStyle;rounded=0;orthogonalLoop=1;jettySize=auto;html=1;exitX=0.5;exitY=0;exitDx=0;exitDy=0;entryX=0.5;entryY=1;entryDx=0;entryDy=0;strokeWidth=2;" edge="1" parent="1" source="eEPwUyeg-tfcytRayrMm-2168" target="eEPwUyeg-tfcytRayrMm-2091">
          <mxGeometry relative="1" as="geometry" />
        </mxCell>
        <mxCell id="eEPwUyeg-tfcytRayrMm-2168" value="Management" style="rounded=1;whiteSpace=wrap;html=1;strokeColor=#006EAF;strokeWidth=2;fillColor=#1ba1e2;fontFamily=Verdana;fontSize=12;fontStyle=1;fontColor=#ffffff;" vertex="1" parent="1">
          <mxGeometry x="695" y="780" width="210" height="40" as="geometry" />
        </mxCell>
        <mxCell id="eEPwUyeg-tfcytRayrMm-2147" value="" style="rounded=1;whiteSpace=wrap;html=1;dashed=1;strokeColor=none;strokeWidth=2;fillColor=#E6E6E6;fontFamily=Verdana;fontSize=12;fontColor=#00BEF2" vertex="1" parent="1">
          <mxGeometry x="545" y="838" width="640" height="180" as="geometry" />
        </mxCell>
        <mxCell id="2027" value="Microservices" style="whiteSpace=wrap;html=1;dashed=1;strokeColor=none;strokeWidth=2;fillColor=#3399FF;fontFamily=Helvetica;fontSize=18;fontColor=#FFFFFF;fontStyle=1" parent="1" vertex="1">
          <mxGeometry x="733" y="131.5" width="130" height="50" as="geometry" />
        </mxCell>
        <mxCell id="2028" value="Data&lt;div&gt;Storage&lt;/div&gt;" style="whiteSpace=wrap;html=1;dashed=1;strokeColor=none;strokeWidth=2;fillColor=#3399FF;fontFamily=Helvetica;fontSize=18;fontColor=#FFFFFF;fontStyle=1" parent="1" vertex="1">
          <mxGeometry x="1037.26" y="131.5" width="137.5" height="50" as="geometry" />
        </mxCell>
        <mxCell id="2047" value="Diagram bootcamp 41" style="text;html=1;strokeColor=none;fillColor=none;align=center;verticalAlign=middle;whiteSpace=wrap;overflow=hidden;dashed=1;fontSize=36;fontColor=#FFFFFF;fontFamily=Helvetica;fontStyle=1" parent="1" vertex="1">
          <mxGeometry x="280.5" y="60" width="1060" height="50" as="geometry" />
        </mxCell>
        <mxCell id="eEPwUyeg-tfcytRayrMm-2086" value="" style="rounded=1;whiteSpace=wrap;html=1;dashed=1;strokeColor=none;strokeWidth=2;fillColor=#FFFFFF;fontFamily=Helvetica;fontSize=14;fontColor=#FFB366;verticalAlign=top;fontStyle=1;arcSize=24;" vertex="1" parent="1">
          <mxGeometry x="539" y="200" width="106" height="560" as="geometry" />
        </mxCell>
        <mxCell id="eEPwUyeg-tfcytRayrMm-2091" value="" style="rounded=1;whiteSpace=wrap;html=1;dashed=1;strokeColor=none;strokeWidth=2;fillColor=#E6E6E6;fontFamily=Verdana;fontSize=12;fontColor=#00BEF2" vertex="1" parent="1">
          <mxGeometry x="691" y="200" width="214" height="560" as="geometry" />
        </mxCell>
        <mxCell id="eEPwUyeg-tfcytRayrMm-2092" value="" style="sketch=0;points=[[0,0,0],[0.25,0,0],[0.5,0,0],[0.75,0,0],[1,0,0],[0,1,0],[0.25,1,0],[0.5,1,0],[0.75,1,0],[1,1,0],[0,0.25,0],[0,0.5,0],[0,0.75,0],[1,0.25,0],[1,0.5,0],[1,0.75,0]];outlineConnect=0;fontColor=#232F3E;gradientColor=#945DF2;gradientDirection=north;fillColor=#5A30B5;strokeColor=#ffffff;dashed=0;verticalLabelPosition=bottom;verticalAlign=top;align=center;html=1;fontSize=12;fontStyle=0;aspect=fixed;shape=mxgraph.aws4.resourceIcon;resIcon=mxgraph.aws4.api_gateway;" vertex="1" parent="1">
          <mxGeometry x="555" y="455" width="56" height="56" as="geometry" />
        </mxCell>
        <mxCell id="eEPwUyeg-tfcytRayrMm-2135" style="edgeStyle=orthogonalEdgeStyle;rounded=0;orthogonalLoop=1;jettySize=auto;html=1;exitX=0.005;exitY=0.63;exitDx=0;exitDy=0;exitPerimeter=0;entryX=1;entryY=0.5;entryDx=0;entryDy=0;entryPerimeter=0;strokeWidth=2;" edge="1" parent="1" source="eEPwUyeg-tfcytRayrMm-2093" target="eEPwUyeg-tfcytRayrMm-2092">
          <mxGeometry relative="1" as="geometry" />
        </mxCell>
        <mxCell id="eEPwUyeg-tfcytRayrMm-2093" value="nttdata-btc-wallet" style="sketch=0;html=1;dashed=0;whitespace=wrap;fillColor=#2875E2;strokeColor=#ffffff;points=[[0.005,0.63,0],[0.1,0.2,0],[0.9,0.2,0],[0.5,0,0],[0.995,0.63,0],[0.72,0.99,0],[0.5,1,0],[0.28,0.99,0]];verticalLabelPosition=bottom;align=center;verticalAlign=top;shape=mxgraph.kubernetes.icon;prIcon=api" vertex="1" parent="1">
          <mxGeometry x="746" y="225" width="50" height="48" as="geometry" />
        </mxCell>
        <mxCell id="eEPwUyeg-tfcytRayrMm-2131" style="edgeStyle=orthogonalEdgeStyle;rounded=0;orthogonalLoop=1;jettySize=auto;html=1;exitX=0.005;exitY=0.63;exitDx=0;exitDy=0;exitPerimeter=0;entryX=0;entryY=0.75;entryDx=0;entryDy=0;entryPerimeter=0;dashed=1;strokeWidth=2;" edge="1" parent="1" source="eEPwUyeg-tfcytRayrMm-2094" target="eEPwUyeg-tfcytRayrMm-2110">
          <mxGeometry relative="1" as="geometry" />
        </mxCell>
        <mxCell id="eEPwUyeg-tfcytRayrMm-2139" style="edgeStyle=orthogonalEdgeStyle;rounded=0;orthogonalLoop=1;jettySize=auto;html=1;exitX=0.1;exitY=0.2;exitDx=0;exitDy=0;exitPerimeter=0;entryX=1;entryY=0.5;entryDx=0;entryDy=0;entryPerimeter=0;strokeWidth=2;" edge="1" parent="1" source="eEPwUyeg-tfcytRayrMm-2094" target="eEPwUyeg-tfcytRayrMm-2092">
          <mxGeometry relative="1" as="geometry" />
        </mxCell>
        <mxCell id="eEPwUyeg-tfcytRayrMm-2152" style="edgeStyle=orthogonalEdgeStyle;rounded=0;orthogonalLoop=1;jettySize=auto;html=1;exitX=0.9;exitY=0.2;exitDx=0;exitDy=0;exitPerimeter=0;entryX=0;entryY=0.5;entryDx=0;entryDy=0;dashed=1;strokeWidth=2;" edge="1" parent="1" source="eEPwUyeg-tfcytRayrMm-2094" target="eEPwUyeg-tfcytRayrMm-2151">
          <mxGeometry relative="1" as="geometry" />
        </mxCell>
        <mxCell id="eEPwUyeg-tfcytRayrMm-2094" value="nttdata-btc-customer" style="sketch=0;html=1;dashed=0;whitespace=wrap;fillColor=#2875E2;strokeColor=#ffffff;points=[[0.005,0.63,0],[0.1,0.2,0],[0.9,0.2,0],[0.5,0,0],[0.995,0.63,0],[0.72,0.99,0],[0.5,1,0],[0.28,0.99,0]];verticalLabelPosition=bottom;align=center;verticalAlign=top;shape=mxgraph.kubernetes.icon;prIcon=api" vertex="1" parent="1">
          <mxGeometry x="748.5" y="293" width="50" height="48" as="geometry" />
        </mxCell>
        <mxCell id="eEPwUyeg-tfcytRayrMm-2095" value="nttdata-btc-notification" style="sketch=0;html=1;dashed=0;whitespace=wrap;fillColor=#2875E2;strokeColor=#ffffff;points=[[0.005,0.63,0],[0.1,0.2,0],[0.9,0.2,0],[0.5,0,0],[0.995,0.63,0],[0.72,0.99,0],[0.5,1,0],[0.28,0.99,0]];verticalLabelPosition=bottom;align=center;verticalAlign=top;shape=mxgraph.kubernetes.icon;prIcon=api" vertex="1" parent="1">
          <mxGeometry x="746" y="366" width="50" height="48" as="geometry" />
        </mxCell>
        <mxCell id="eEPwUyeg-tfcytRayrMm-2138" style="edgeStyle=orthogonalEdgeStyle;rounded=0;orthogonalLoop=1;jettySize=auto;html=1;exitX=0.005;exitY=0.63;exitDx=0;exitDy=0;exitPerimeter=0;entryX=1;entryY=0.5;entryDx=0;entryDy=0;entryPerimeter=0;strokeWidth=2;" edge="1" parent="1" source="eEPwUyeg-tfcytRayrMm-2096" target="eEPwUyeg-tfcytRayrMm-2092">
          <mxGeometry relative="1" as="geometry" />
        </mxCell>
        <mxCell id="eEPwUyeg-tfcytRayrMm-2096" value="nttdata-btc-product" style="sketch=0;html=1;dashed=0;whitespace=wrap;fillColor=#2875E2;strokeColor=#ffffff;points=[[0.005,0.63,0],[0.1,0.2,0],[0.9,0.2,0],[0.5,0,0],[0.995,0.63,0],[0.72,0.99,0],[0.5,1,0],[0.28,0.99,0]];verticalLabelPosition=bottom;align=center;verticalAlign=top;shape=mxgraph.kubernetes.icon;prIcon=api" vertex="1" parent="1">
          <mxGeometry x="748.5" y="440" width="50" height="48" as="geometry" />
        </mxCell>
        <mxCell id="eEPwUyeg-tfcytRayrMm-2140" style="edgeStyle=orthogonalEdgeStyle;rounded=0;orthogonalLoop=1;jettySize=auto;html=1;exitX=0.005;exitY=0.63;exitDx=0;exitDy=0;exitPerimeter=0;entryX=1;entryY=0.5;entryDx=0;entryDy=0;entryPerimeter=0;strokeWidth=2;" edge="1" parent="1" source="eEPwUyeg-tfcytRayrMm-2097" target="eEPwUyeg-tfcytRayrMm-2092">
          <mxGeometry relative="1" as="geometry" />
        </mxCell>
        <mxCell id="eEPwUyeg-tfcytRayrMm-2097" value="nttdata-btc-card" style="sketch=0;html=1;dashed=0;whitespace=wrap;fillColor=#2875E2;strokeColor=#ffffff;points=[[0.005,0.63,0],[0.1,0.2,0],[0.9,0.2,0],[0.5,0,0],[0.995,0.63,0],[0.72,0.99,0],[0.5,1,0],[0.28,0.99,0]];verticalLabelPosition=bottom;align=center;verticalAlign=top;shape=mxgraph.kubernetes.icon;prIcon=api" vertex="1" parent="1">
          <mxGeometry x="748" y="520" width="50" height="48" as="geometry" />
        </mxCell>
        <mxCell id="eEPwUyeg-tfcytRayrMm-2142" style="edgeStyle=orthogonalEdgeStyle;rounded=0;orthogonalLoop=1;jettySize=auto;html=1;exitX=0.005;exitY=0.63;exitDx=0;exitDy=0;exitPerimeter=0;entryX=1;entryY=0.5;entryDx=0;entryDy=0;entryPerimeter=0;strokeWidth=2;" edge="1" parent="1" source="eEPwUyeg-tfcytRayrMm-2098" target="eEPwUyeg-tfcytRayrMm-2092">
          <mxGeometry relative="1" as="geometry" />
        </mxCell>
        <mxCell id="eEPwUyeg-tfcytRayrMm-2098" value="nttdata-btc-account" style="sketch=0;html=1;dashed=0;whitespace=wrap;fillColor=#2875E2;strokeColor=#ffffff;points=[[0.005,0.63,0],[0.1,0.2,0],[0.9,0.2,0],[0.5,0,0],[0.995,0.63,0],[0.72,0.99,0],[0.5,1,0],[0.28,0.99,0]];verticalLabelPosition=bottom;align=center;verticalAlign=top;shape=mxgraph.kubernetes.icon;prIcon=api" vertex="1" parent="1">
          <mxGeometry x="748" y="600" width="50" height="48" as="geometry" />
        </mxCell>
        <mxCell id="eEPwUyeg-tfcytRayrMm-2143" style="edgeStyle=orthogonalEdgeStyle;rounded=0;orthogonalLoop=1;jettySize=auto;html=1;exitX=0.005;exitY=0.63;exitDx=0;exitDy=0;exitPerimeter=0;entryX=1;entryY=0.5;entryDx=0;entryDy=0;entryPerimeter=0;strokeWidth=2;" edge="1" parent="1" source="eEPwUyeg-tfcytRayrMm-2099" target="eEPwUyeg-tfcytRayrMm-2092">
          <mxGeometry relative="1" as="geometry" />
        </mxCell>
        <mxCell id="eEPwUyeg-tfcytRayrMm-2154" style="edgeStyle=orthogonalEdgeStyle;rounded=0;orthogonalLoop=1;jettySize=auto;html=1;exitX=0.9;exitY=0.2;exitDx=0;exitDy=0;exitPerimeter=0;entryX=0;entryY=0.5;entryDx=0;entryDy=0;dashed=1;strokeWidth=2;" edge="1" parent="1" source="eEPwUyeg-tfcytRayrMm-2099" target="eEPwUyeg-tfcytRayrMm-2153">
          <mxGeometry relative="1" as="geometry">
            <Array as="points">
              <mxPoint x="793" y="676" />
            </Array>
          </mxGeometry>
        </mxCell>
        <mxCell id="eEPwUyeg-tfcytRayrMm-2099" value="nttdata-btc-operation" style="sketch=0;html=1;dashed=0;whitespace=wrap;fillColor=#2875E2;strokeColor=#ffffff;points=[[0.005,0.63,0],[0.1,0.2,0],[0.9,0.2,0],[0.5,0,0],[0.995,0.63,0],[0.72,0.99,0],[0.5,1,0],[0.28,0.99,0]];verticalLabelPosition=bottom;align=center;verticalAlign=top;shape=mxgraph.kubernetes.icon;prIcon=api" vertex="1" parent="1">
          <mxGeometry x="748" y="674" width="50" height="48" as="geometry" />
        </mxCell>
        <mxCell id="eEPwUyeg-tfcytRayrMm-2148" style="edgeStyle=orthogonalEdgeStyle;rounded=0;orthogonalLoop=1;jettySize=auto;html=1;exitX=0.5;exitY=0;exitDx=0;exitDy=0;exitPerimeter=0;entryX=0.995;entryY=0.63;entryDx=0;entryDy=0;entryPerimeter=0;strokeWidth=2;dashed=1;" edge="1" parent="1" source="eEPwUyeg-tfcytRayrMm-2110" target="eEPwUyeg-tfcytRayrMm-2095">
          <mxGeometry relative="1" as="geometry">
            <Array as="points">
              <mxPoint x="975" y="914" />
              <mxPoint x="975" y="396" />
            </Array>
          </mxGeometry>
        </mxCell>
        <object placeholders="1" c4Type="customers" c4Container="Bus Customers" c4Technology="e.g. Apache Kafka, etc." c4Description="Message bus for customers." label="&lt;font style=&quot;font-size: 16px&quot;&gt;&lt;b&gt;%c4Type%&lt;/b&gt;&lt;/font&gt;&lt;div&gt;[%c4Container%:&amp;nbsp;%c4Technology%]&lt;/div&gt;&lt;br&gt;&lt;div&gt;&lt;font style=&quot;font-size: 11px&quot;&gt;&lt;font color=&quot;#E6E6E6&quot;&gt;%c4Description%&lt;/font&gt;&lt;/div&gt;" id="eEPwUyeg-tfcytRayrMm-2110">
          <mxCell style="shape=cylinder3;size=15;direction=south;whiteSpace=wrap;html=1;boundedLbl=1;rounded=0;labelBackgroundColor=none;fillColor=#23A2D9;fontSize=12;fontColor=#ffffff;align=center;strokeColor=#0E7DAD;metaEdit=1;points=[[0.5,0,0],[1,0.25,0],[1,0.5,0],[1,0.75,0],[0.5,1,0],[0,0.75,0],[0,0.5,0],[0,0.25,0]];resizable=0;" vertex="1" parent="1">
            <mxGeometry x="653" y="854.25" width="240" height="120" as="geometry" />
          </mxCell>
        </object>
        <mxCell id="eEPwUyeg-tfcytRayrMm-2111" value="" style="rounded=1;whiteSpace=wrap;html=1;dashed=1;strokeColor=none;strokeWidth=2;fillColor=#E6E6E6;fontFamily=Verdana;fontSize=12;fontColor=#00BEF2" vertex="1" parent="1">
          <mxGeometry x="1025" y="200" width="160" height="560" as="geometry" />
        </mxCell>
        <mxCell id="eEPwUyeg-tfcytRayrMm-2112" value="&lt;font style=&quot;font-size: 12px;&quot;&gt;Database Wallet&lt;/font&gt;" style="verticalLabelPosition=bottom;html=1;verticalAlign=top;strokeColor=none;fillColor=#3399FF;shape=mxgraph.azure.database;dashed=1;fontFamily=Helvetica;fontSize=14;fontColor=#004C99" vertex="1" parent="1">
          <mxGeometry x="1091.63" y="231.5" width="28.75" height="35" as="geometry" />
        </mxCell>
        <mxCell id="eEPwUyeg-tfcytRayrMm-2117" value="&lt;font style=&quot;font-size: 12px;&quot;&gt;Database Customer&lt;/font&gt;" style="verticalLabelPosition=bottom;html=1;verticalAlign=top;strokeColor=none;fillColor=#3399FF;shape=mxgraph.azure.database;dashed=1;fontFamily=Helvetica;fontSize=14;fontColor=#004C99" vertex="1" parent="1">
          <mxGeometry x="1091.62" y="299.5" width="28.75" height="35" as="geometry" />
        </mxCell>
        <mxCell id="eEPwUyeg-tfcytRayrMm-2118" value="&lt;font style=&quot;font-size: 12px;&quot;&gt;Database Notification&lt;/font&gt;" style="verticalLabelPosition=bottom;html=1;verticalAlign=top;strokeColor=none;fillColor=#3399FF;shape=mxgraph.azure.database;dashed=1;fontFamily=Helvetica;fontSize=14;fontColor=#004C99" vertex="1" parent="1">
          <mxGeometry x="1091.62" y="372.5" width="28.75" height="35" as="geometry" />
        </mxCell>
        <mxCell id="eEPwUyeg-tfcytRayrMm-2119" value="&lt;font style=&quot;font-size: 12px;&quot;&gt;Database Product&lt;/font&gt;" style="verticalLabelPosition=bottom;html=1;verticalAlign=top;strokeColor=none;fillColor=#3399FF;shape=mxgraph.azure.database;dashed=1;fontFamily=Helvetica;fontSize=14;fontColor=#004C99" vertex="1" parent="1">
          <mxGeometry x="1091.62" y="446.5" width="28.75" height="35" as="geometry" />
        </mxCell>
        <mxCell id="eEPwUyeg-tfcytRayrMm-2120" value="&lt;font style=&quot;font-size: 12px;&quot;&gt;Database Card&lt;br&gt;&lt;/font&gt;" style="verticalLabelPosition=bottom;html=1;verticalAlign=top;strokeColor=none;fillColor=#3399FF;shape=mxgraph.azure.database;dashed=1;fontFamily=Helvetica;fontSize=14;fontColor=#004C99" vertex="1" parent="1">
          <mxGeometry x="1091.62" y="520" width="28.75" height="35" as="geometry" />
        </mxCell>
        <mxCell id="eEPwUyeg-tfcytRayrMm-2121" value="&lt;font style=&quot;font-size: 12px;&quot;&gt;Database Account&lt;/font&gt;" style="verticalLabelPosition=bottom;html=1;verticalAlign=top;strokeColor=none;fillColor=#3399FF;shape=mxgraph.azure.database;dashed=1;fontFamily=Helvetica;fontSize=14;fontColor=#004C99" vertex="1" parent="1">
          <mxGeometry x="1091.62" y="606.5" width="28.75" height="35" as="geometry" />
        </mxCell>
        <mxCell id="eEPwUyeg-tfcytRayrMm-2122" value="&lt;font style=&quot;font-size: 12px;&quot;&gt;Database Operation&lt;/font&gt;" style="verticalLabelPosition=bottom;html=1;verticalAlign=top;strokeColor=none;fillColor=#3399FF;shape=mxgraph.azure.database;dashed=1;fontFamily=Helvetica;fontSize=14;fontColor=#004C99" vertex="1" parent="1">
          <mxGeometry x="1091.62" y="680.5" width="28.75" height="35" as="geometry" />
        </mxCell>
        <mxCell id="eEPwUyeg-tfcytRayrMm-2123" value="API Gateaway" style="whiteSpace=wrap;html=1;dashed=1;strokeColor=none;strokeWidth=2;fillColor=#3399FF;fontFamily=Helvetica;fontSize=18;fontColor=#FFFFFF;fontStyle=1" vertex="1" parent="1">
          <mxGeometry x="543.12" y="129" width="97.75" height="55" as="geometry" />
        </mxCell>
        <mxCell id="eEPwUyeg-tfcytRayrMm-2124" style="edgeStyle=orthogonalEdgeStyle;rounded=0;orthogonalLoop=1;jettySize=auto;html=1;exitX=0.995;exitY=0.63;exitDx=0;exitDy=0;exitPerimeter=0;entryX=0;entryY=0.5;entryDx=0;entryDy=0;entryPerimeter=0;strokeWidth=2;" edge="1" parent="1" source="eEPwUyeg-tfcytRayrMm-2093" target="eEPwUyeg-tfcytRayrMm-2112">
          <mxGeometry relative="1" as="geometry" />
        </mxCell>
        <mxCell id="eEPwUyeg-tfcytRayrMm-2125" style="edgeStyle=orthogonalEdgeStyle;rounded=0;orthogonalLoop=1;jettySize=auto;html=1;exitX=0.995;exitY=0.63;exitDx=0;exitDy=0;exitPerimeter=0;entryX=0;entryY=0.5;entryDx=0;entryDy=0;entryPerimeter=0;strokeWidth=2;" edge="1" parent="1" source="eEPwUyeg-tfcytRayrMm-2094" target="eEPwUyeg-tfcytRayrMm-2117">
          <mxGeometry relative="1" as="geometry" />
        </mxCell>
        <mxCell id="eEPwUyeg-tfcytRayrMm-2127" style="edgeStyle=orthogonalEdgeStyle;rounded=0;orthogonalLoop=1;jettySize=auto;html=1;exitX=0.995;exitY=0.63;exitDx=0;exitDy=0;exitPerimeter=0;entryX=0;entryY=0.5;entryDx=0;entryDy=0;entryPerimeter=0;strokeWidth=2;" edge="1" parent="1" source="eEPwUyeg-tfcytRayrMm-2096" target="eEPwUyeg-tfcytRayrMm-2119">
          <mxGeometry relative="1" as="geometry" />
        </mxCell>
        <mxCell id="eEPwUyeg-tfcytRayrMm-2128" style="edgeStyle=orthogonalEdgeStyle;rounded=0;orthogonalLoop=1;jettySize=auto;html=1;exitX=0.995;exitY=0.63;exitDx=0;exitDy=0;exitPerimeter=0;entryX=0;entryY=0.5;entryDx=0;entryDy=0;entryPerimeter=0;strokeWidth=2;" edge="1" parent="1" source="eEPwUyeg-tfcytRayrMm-2097" target="eEPwUyeg-tfcytRayrMm-2120">
          <mxGeometry relative="1" as="geometry" />
        </mxCell>
        <mxCell id="eEPwUyeg-tfcytRayrMm-2129" style="edgeStyle=orthogonalEdgeStyle;rounded=0;orthogonalLoop=1;jettySize=auto;html=1;exitX=0.995;exitY=0.63;exitDx=0;exitDy=0;exitPerimeter=0;entryX=0;entryY=0.5;entryDx=0;entryDy=0;entryPerimeter=0;strokeWidth=2;" edge="1" parent="1" source="eEPwUyeg-tfcytRayrMm-2098" target="eEPwUyeg-tfcytRayrMm-2121">
          <mxGeometry relative="1" as="geometry" />
        </mxCell>
        <mxCell id="eEPwUyeg-tfcytRayrMm-2130" style="edgeStyle=orthogonalEdgeStyle;rounded=0;orthogonalLoop=1;jettySize=auto;html=1;exitX=0.995;exitY=0.63;exitDx=0;exitDy=0;exitPerimeter=0;entryX=0;entryY=0.5;entryDx=0;entryDy=0;entryPerimeter=0;strokeWidth=2;" edge="1" parent="1" source="eEPwUyeg-tfcytRayrMm-2099" target="eEPwUyeg-tfcytRayrMm-2122">
          <mxGeometry relative="1" as="geometry" />
        </mxCell>
        <mxCell id="eEPwUyeg-tfcytRayrMm-2134" style="edgeStyle=orthogonalEdgeStyle;rounded=0;orthogonalLoop=1;jettySize=auto;html=1;exitX=0.9;exitY=0.2;exitDx=0;exitDy=0;exitPerimeter=0;entryX=0;entryY=0.5;entryDx=0;entryDy=0;entryPerimeter=0;strokeWidth=2;" edge="1" parent="1" source="eEPwUyeg-tfcytRayrMm-2095" target="eEPwUyeg-tfcytRayrMm-2118">
          <mxGeometry relative="1" as="geometry" />
        </mxCell>
        <mxCell id="eEPwUyeg-tfcytRayrMm-2144" value="" style="html=1;verticalLabelPosition=bottom;align=center;labelBackgroundColor=#ffffff;verticalAlign=top;strokeWidth=2;strokeColor=#0080F0;shadow=0;dashed=0;shape=mxgraph.ios7.icons.mail;" vertex="1" parent="1">
          <mxGeometry x="975" y="414" width="30" height="16.5" as="geometry" />
        </mxCell>
        <mxCell id="eEPwUyeg-tfcytRayrMm-2145" value="" style="html=1;verticalLabelPosition=bottom;align=center;labelBackgroundColor=#ffffff;verticalAlign=top;strokeWidth=2;strokeColor=#0080F0;shadow=0;dashed=0;shape=mxgraph.ios7.icons.mail;" vertex="1" parent="1">
          <mxGeometry x="695" y="376" width="30" height="16.5" as="geometry" />
        </mxCell>
        <mxCell id="eEPwUyeg-tfcytRayrMm-2146" value="Queues" style="verticalLabelPosition=bottom;html=1;verticalAlign=top;strokeColor=none;fillColor=#3399FF;shape=mxgraph.azure.queue_generic;dashed=1;fontFamily=Helvetica;fontSize=14;fontColor=#004C99" vertex="1" parent="1">
          <mxGeometry x="748.5" y="974.25" width="50" height="15" as="geometry" />
        </mxCell>
        <mxCell id="eEPwUyeg-tfcytRayrMm-2151" value="" style="shape=image;verticalLabelPosition=bottom;labelBackgroundColor=#ffffff;verticalAlign=top;aspect=fixed;imageAspect=0;image=data:image/svg+xml,PHN2ZyB4bWxuczpjYz0iaHR0cDovL2NyZWF0aXZlY29tbW9ucy5vcmcvbnMjIiB4bWxuczpkYz0iaHR0cDovL3B1cmwub3JnL2RjL2VsZW1lbnRzLzEuMS8iIHhtbG5zOmlua3NjYXBlPSJodHRwOi8vd3d3Lmlua3NjYXBlLm9yZy9uYW1lc3BhY2VzL2lua3NjYXBlIiB4bWxuczpyZGY9Imh0dHA6Ly93d3cudzMub3JnLzE5OTkvMDIvMjItcmRmLXN5bnRheC1ucyMiIHhtbG5zOnNvZGlwb2RpPSJodHRwOi8vc29kaXBvZGkuc291cmNlZm9yZ2UubmV0L0RURC9zb2RpcG9kaS0wLmR0ZCIgeG1sbnM6c3ZnPSJodHRwOi8vd3d3LnczLm9yZy8yMDAwL3N2ZyIgeG1sbnM9Imh0dHA6Ly93d3cudzMub3JnLzIwMDAvc3ZnIiB4bWxuczp4bGluaz0iaHR0cDovL3d3dy53My5vcmcvMTk5OS94bGluayIgdmVyc2lvbj0iMS4xIiBpZD0ic3ZnODU1MTEiIGlua3NjYXBlOnZlcnNpb249IjAuOTIuMyAoMjQwNTU0NiwgMjAxOC0wMy0xMSkiIHNvZGlwb2RpOmRvY25hbWU9InJlZGlzX2NhY2hlLnN2ZyIgeD0iMHB4IiB5PSIwcHgiIHZpZXdCb3g9IjAgMCAzNy41MSAzMS42IiBzdHlsZT0iZW5hYmxlLWJhY2tncm91bmQ6bmV3IDAgMCAzNy41MSAzMS42OyIgeG1sOnNwYWNlPSJwcmVzZXJ2ZSI+JiN4YTs8c29kaXBvZGk6bmFtZWR2aWV3IGJvcmRlcmNvbG9yPSIjNjY2NjY2IiBib3JkZXJvcGFjaXR5PSIxIiBmaXQtbWFyZ2luLWJvdHRvbT0iMCIgZml0LW1hcmdpbi1sZWZ0PSIwIiBmaXQtbWFyZ2luLXJpZ2h0PSIwIiBmaXQtbWFyZ2luLXRvcD0iMCIgZ3JpZHRvbGVyYW5jZT0iMTAiIGd1aWRldG9sZXJhbmNlPSIxMCIgaWQ9Im5hbWVkdmlldzg1NTEzIiBpbmtzY2FwZTpjdXJyZW50LWxheWVyPSJzdmc4NTUxMSIgaW5rc2NhcGU6Y3g9IjMwLjA3NTIzMSIgaW5rc2NhcGU6Y3k9IjAuMzQ3MzA4NDYiIGlua3NjYXBlOnBhZ2VvcGFjaXR5PSIwIiBpbmtzY2FwZTpwYWdlc2hhZG93PSIyIiBpbmtzY2FwZTp3aW5kb3ctaGVpZ2h0PSIxMDE3IiBpbmtzY2FwZTp3aW5kb3ctbWF4aW1pemVkPSIxIiBpbmtzY2FwZTp3aW5kb3ctd2lkdGg9IjE5MjAiIGlua3NjYXBlOndpbmRvdy14PSItOCIgaW5rc2NhcGU6d2luZG93LXk9Ii04IiBpbmtzY2FwZTp6b29tPSI2Ljk0NDY3MzkiIG9iamVjdHRvbGVyYW5jZT0iMTAiIHBhZ2Vjb2xvcj0iI2ZmZmZmZiIgc2hvd2dyaWQ9ImZhbHNlIj4mI3hhOwk8L3NvZGlwb2RpOm5hbWVkdmlldz4mI3hhOzxnIGlkPSJnODU1MDkiIHRyYW5zZm9ybT0idHJhbnNsYXRlKC0wLjc0NjgyNzEsLTAuNzUxNjI1KSI+JiN4YTsJPHRpdGxlIGlkPSJ0aXRsZTg1NDI1Ij5QYWdlLTE8L3RpdGxlPiYjeGE7CTxnIGlkPSJncm91cDQ0MTEtMSIgdHJhbnNmb3JtPSJ0cmFuc2xhdGUoMC40MDcyOSwtMC42MDkzNzUpIj4mI3hhOwkJPHRpdGxlIGlkPSJ0aXRsZTg1NDI3Ij5SZWRpcyBDYWNoZTwvdGl0bGU+JiN4YTsJCTxnIGlkPSJncm91cDQ0MTItMiI+JiN4YTsJCQk8dGl0bGUgaWQ9InRpdGxlODU0MjkiPlNoZWV0LjQ0MTI8L3RpdGxlPiYjeGE7CQkJPGcgaWQ9InNoYXBlNDQxMy0zIiB0cmFuc2Zvcm09InRyYW5zbGF0ZSgwLjIzNykiPiYjeGE7CQkJCTx0aXRsZSBpZD0idGl0bGU4NTQzMSI+U2hlZXQuNDQxMzwvdGl0bGU+JiN4YTsJCQkJPHBhdGggaWQ9InBhdGg4NTQzMyIgaW5rc2NhcGU6Y29ubmVjdG9yLWN1cnZhdHVyZT0iMCIgc3R5bGU9ImZpbGw6I0JBMTQxQTsiIGQ9Ik0wLjExLDI1LjE5Yy0wLjA2LDAuNCwwLjI4LDAuOCwxLjAyLDEuMTEgICAgICBsMTUuMjQsNi4yNGMxLjM3LDAuNTYsMy42LDAuNTYsNC45NywwbDE1LjI0LTYuMjRjMC43NC0wLjMxLDEuMDgtMC43MSwxLjAyLTEuMTF2LTMuNThjMC4wNSwwLjM5LTAuMjksMC43OS0xLjAyLDEuMDkgICAgICBsLTE1LjI0LDYuMjRjLTEuMzcsMC41Ni0zLjYsMC41Ni00Ljk3LDBMMS4xMywyMi43Yy0wLjgtMC4zMy0xLjEzLTAuNzgtMS0xLjJMMC4xMSwyNS4xOXoiLz4mI3hhOwkJCTwvZz4mI3hhOwkJCTxnIGlkPSJzaGFwZTQ0MTQtNSIgdHJhbnNmb3JtPSJ0cmFuc2xhdGUoMCwtMy42KSI+JiN4YTsJCQkJPHRpdGxlIGlkPSJ0aXRsZTg1NDM2Ij5TaGVldC40NDE0PC90aXRsZT4mI3hhOwkJCQk8cGF0aCBpZD0icGF0aDg1NDM4IiBpbmtzY2FwZTpjb25uZWN0b3ItY3VydmF0dXJlPSIwIiBzdHlsZT0iZmlsbDojQkExNDFBOyIgZD0iTTM2LjgxLDI0LjI2YzEuMzgsMC41NywxLjM4LDEuNDgsMCwyLjA0ICAgICAgbC0xNS4yMyw2LjI0Yy0xLjM3LDAuNTYtMy42LDAuNTYtNC45NywwTDEuMzcsMjYuM0MwLDI1Ljc0LDAsMjQuODMsMS4zNywyNC4yNmwxNS4yNC02LjI0YzEuMzctMC41NiwzLjYtMC41Niw0Ljk3LDAgICAgICBMMzYuODEsMjQuMjZ6Ii8+JiN4YTsJCQk8L2c+JiN4YTsJCTwvZz4mI3hhOwkJPGcgaWQ9Imdyb3VwNDQxNS03IiB0cmFuc2Zvcm09InRyYW5zbGF0ZSgwLC02LjMxOTUpIj4mI3hhOwkJCTx0aXRsZSBpZD0idGl0bGU4NTQ0MiI+U2hlZXQuNDQxNTwvdGl0bGU+JiN4YTsJCQk8ZyBpZD0ic2hhcGU0NDE2LTgiIHRyYW5zZm9ybT0idHJhbnNsYXRlKDAuMjM3KSI+JiN4YTsJCQkJPHRpdGxlIGlkPSJ0aXRsZTg1NDQ0Ij5TaGVldC40NDE2PC90aXRsZT4mI3hhOwkJCQk8cGF0aCBpZD0icGF0aDg1NDQ2IiBpbmtzY2FwZTpjb25uZWN0b3ItY3VydmF0dXJlPSIwIiBzdHlsZT0iZmlsbDojQkExNDFBOyIgZD0iTTAuMTEsMjUuMTljLTAuMDYsMC40LDAuMjgsMC44LDEuMDIsMS4xMSAgICAgIGwxNS4yNCw2LjI0YzEuMzcsMC41NiwzLjYsMC41Niw0Ljk3LDBsMTUuMjQtNi4yNGMwLjc0LTAuMzEsMS4wOC0wLjcxLDEuMDItMS4xMXYtMy41OGMwLjA1LDAuMzktMC4yOSwwLjc5LTEuMDIsMS4wOSAgICAgIGwtMTUuMjQsNi4yNGMtMS4zNywwLjU2LTMuNiwwLjU2LTQuOTcsMEwxLjEzLDIyLjdjLTAuOC0wLjMzLTEuMTMtMC43OC0xLTEuMkwwLjExLDI1LjE5eiIvPiYjeGE7CQkJPC9nPiYjeGE7CQkJPGcgaWQ9InNoYXBlNDQxNy0xMCIgdHJhbnNmb3JtPSJ0cmFuc2xhdGUoMCwtMy42KSI+JiN4YTsJCQkJPHRpdGxlIGlkPSJ0aXRsZTg1NDQ5Ij5TaGVldC40NDE3PC90aXRsZT4mI3hhOwkJCQk8cGF0aCBpZD0icGF0aDg1NDUxIiBpbmtzY2FwZTpjb25uZWN0b3ItY3VydmF0dXJlPSIwIiBzdHlsZT0iZmlsbDojQkExNDFBOyIgZD0iTTM2LjgxLDI0LjI2YzEuMzgsMC41NywxLjM4LDEuNDgsMCwyLjA0ICAgICAgbC0xNS4yMyw2LjI0Yy0xLjM3LDAuNTYtMy42LDAuNTYtNC45NywwTDEuMzcsMjYuM0MwLDI1Ljc0LDAsMjQuODMsMS4zNywyNC4yNmwxNS4yNC02LjI0YzEuMzctMC41NiwzLjYtMC41Niw0Ljk3LDAgICAgICBMMzYuODEsMjQuMjZ6Ii8+JiN4YTsJCQk8L2c+JiN4YTsJCTwvZz4mI3hhOwkJPGcgaWQ9Imdyb3VwNDQxOC0xMiI+JiN4YTsJCQk8dGl0bGUgaWQ9InRpdGxlODU0NTUiPlNoZWV0LjQ0MTg8L3RpdGxlPiYjeGE7CQkJPGcgaWQ9InNoYXBlNDQxOS0xMyIgdHJhbnNmb3JtPSJ0cmFuc2xhdGUoMC4yMzcsLTEyLjYzOSkiPiYjeGE7CQkJCTx0aXRsZSBpZD0idGl0bGU4NTQ1NyI+U2hlZXQuNDQxOTwvdGl0bGU+JiN4YTsJCQkJPHBhdGggaWQ9InBhdGg4NTQ1OSIgaW5rc2NhcGU6Y29ubmVjdG9yLWN1cnZhdHVyZT0iMCIgc3R5bGU9ImZpbGw6I0JBMTQxQTsiIGQ9Ik0wLjExLDI1LjE5Yy0wLjA2LDAuNCwwLjI4LDAuOCwxLjAyLDEuMTEgICAgICBsMTUuMjQsNi4yNGMxLjM3LDAuNTYsMy42LDAuNTYsNC45NywwbDE1LjI0LTYuMjRjMC43NC0wLjMxLDEuMDgtMC43MSwxLjAyLTEuMTF2LTMuNThjMC4wNSwwLjM5LTAuMjksMC43OS0xLjAyLDEuMDkgICAgICBsLTE1LjI0LDYuMjRjLTEuMzcsMC41Ni0zLjYsMC41Ni00Ljk3LDBMMS4xMywyMi43Yy0wLjgtMC4zMy0xLjEzLTAuNzgtMS0xLjJMMC4xMSwyNS4xOXoiLz4mI3hhOwkJCTwvZz4mI3hhOwkJCTxnIGlkPSJzaGFwZTQ0MjAtMTUiIHRyYW5zZm9ybT0idHJhbnNsYXRlKDAuMjM3KSI+JiN4YTsJCQkJPHRpdGxlIGlkPSJ0aXRsZTg1NDYyIj5TaGVldC40NDIwPC90aXRsZT4mI3hhOwkJCQk8cGF0aCBpZD0icGF0aDg1NDY0IiBpbmtzY2FwZTpjb25uZWN0b3ItY3VydmF0dXJlPSIwIiBzdHlsZT0iZmlsbDojMUUxRTFFO2ZpbGwtb3BhY2l0eTowLjI1OyIgZD0iTTAuMTEsMjUuMTkgICAgICBjLTAuMDYsMC40LDAuMjgsMC44LDEuMDIsMS4xMWwxNS4yNCw2LjI0YzEuMzcsMC41NiwzLjYsMC41Niw0Ljk3LDBsMTUuMjQtNi4yNGMwLjc0LTAuMzEsMS4wOC0wLjcxLDEuMDItMS4xMXYtMy41OCAgICAgIGMwLjA1LDAuMzktMC4yOSwwLjc5LTEuMDIsMS4wOWwtMTUuMjQsNi4yNGMtMS4zNywwLjU2LTMuNiwwLjU2LTQuOTcsMEwxLjEzLDIyLjdjLTAuOC0wLjMzLTEuMTMtMC43OC0xLTEuMkwwLjExLDI1LjE5eiIvPiYjeGE7CQkJPC9nPiYjeGE7CQkJPGcgaWQ9InNoYXBlNDQyMS0xNyIgdHJhbnNmb3JtPSJ0cmFuc2xhdGUoMC4yMzcsLTYuMzE5NSkiPiYjeGE7CQkJCTx0aXRsZSBpZD0idGl0bGU4NTQ2NyI+U2hlZXQuNDQyMTwvdGl0bGU+JiN4YTsJCQkJPHBhdGggaWQ9InBhdGg4NTQ2OSIgaW5rc2NhcGU6Y29ubmVjdG9yLWN1cnZhdHVyZT0iMCIgc3R5bGU9ImZpbGw6IzFFMUUxRTtmaWxsLW9wYWNpdHk6MC4yNTsiIGQ9Ik0wLjExLDI1LjE5ICAgICAgYy0wLjA2LDAuNCwwLjI4LDAuOCwxLjAyLDEuMTFsMTUuMjQsNi4yNGMxLjM3LDAuNTYsMy42LDAuNTYsNC45NywwbDE1LjI0LTYuMjRjMC43NC0wLjMxLDEuMDgtMC43MSwxLjAyLTEuMTF2LTMuNTggICAgICBjMC4wNSwwLjM5LTAuMjksMC43OS0xLjAyLDEuMDlsLTE1LjI0LDYuMjRjLTEuMzcsMC41Ni0zLjYsMC41Ni00Ljk3LDBMMS4xMywyMi43Yy0wLjgtMC4zMy0xLjEzLTAuNzgtMS0xLjJMMC4xMSwyNS4xOXoiLz4mI3hhOwkJCTwvZz4mI3hhOwkJCTxnIGlkPSJzaGFwZTQ0MjItMTkiIHRyYW5zZm9ybT0idHJhbnNsYXRlKDAuMjM3LC0xMi42MzkpIj4mI3hhOwkJCQk8dGl0bGUgaWQ9InRpdGxlODU0NzIiPlNoZWV0LjQ0MjI8L3RpdGxlPiYjeGE7CQkJCTxwYXRoIGlkPSJwYXRoODU0NzQiIGlua3NjYXBlOmNvbm5lY3Rvci1jdXJ2YXR1cmU9IjAiIHN0eWxlPSJmaWxsOiMxRTFFMUU7ZmlsbC1vcGFjaXR5OjAuMjU7IiBkPSJNMC4xMSwyNS4xOSAgICAgIGMtMC4wNiwwLjQsMC4yOCwwLjgsMS4wMiwxLjExbDE1LjI0LDYuMjRjMS4zNywwLjU2LDMuNiwwLjU2LDQuOTcsMGwxNS4yNC02LjI0YzAuNzQtMC4zMSwxLjA4LTAuNzEsMS4wMi0xLjExdi0zLjU4ICAgICAgYzAuMDUsMC4zOS0wLjI5LDAuNzktMS4wMiwxLjA5bC0xNS4yNCw2LjI0Yy0xLjM3LDAuNTYtMy42LDAuNTYtNC45NywwTDEuMTMsMjIuN2MtMC44LTAuMzMtMS4xMy0wLjc4LTEtMS4yTDAuMTEsMjUuMTl6Ii8+JiN4YTsJCQk8L2c+JiN4YTsJCQk8ZyBpZD0ic2hhcGU0NDIzLTIxIiB0cmFuc2Zvcm09InRyYW5zbGF0ZSgwLC0xNi4yMzkpIj4mI3hhOwkJCQk8dGl0bGUgaWQ9InRpdGxlODU0NzciPlNoZWV0LjQ0MjM8L3RpdGxlPiYjeGE7CQkJCTxwYXRoIGlkPSJwYXRoODU0NzkiIGlua3NjYXBlOmNvbm5lY3Rvci1jdXJ2YXR1cmU9IjAiIHN0eWxlPSJmaWxsOiNCQTE0MUE7IiBkPSJNMzYuODEsMjQuMjZjMS4zOCwwLjU3LDEuMzgsMS40OCwwLDIuMDQgICAgICBsLTE1LjIzLDYuMjRjLTEuMzcsMC41Ni0zLjYsMC41Ni00Ljk3LDBMMS4zNywyNi4zQzAsMjUuNzQsMCwyNC44MywxLjM3LDI0LjI2bDE1LjI0LTYuMjRjMS4zNy0wLjU2LDMuNi0wLjU2LDQuOTcsMCAgICAgIEwzNi44MSwyNC4yNnoiLz4mI3hhOwkJCTwvZz4mI3hhOwkJPC9nPiYjeGE7CQk8ZyBpZD0ic2hhcGU0NDI0LTIzIiB0cmFuc2Zvcm09InRyYW5zbGF0ZSg2LjM2MTUsLTIyLjExMjMpIj4mI3hhOwkJCTx0aXRsZSBpZD0idGl0bGU4NTQ4MyI+U2hlZXQuNDQyNDwvdGl0bGU+JiN4YTsJCQk8cGF0aCBpZD0icGF0aDg1NDg1IiBpbmtzY2FwZTpjb25uZWN0b3ItY3VydmF0dXJlPSIwIiBzdHlsZT0iZmlsbDojRkZGRkZGOyIgZD0iTTguMDQsMzIuMzNjLTEuNzQsMC43Ny00LjU2LDAuNzctNi4zLDAgICAgIEMwLDMxLjU2LDAsMzAuMywxLjc0LDI5LjUzYzEuNzQtMC43Nyw0LjU2LTAuNzcsNi4zLDBDOS43NywzMC4zLDkuNzgsMzEuNTYsOC4wNCwzMi4zM3oiLz4mI3hhOwkJPC9nPiYjeGE7CQk8ZyBpZD0ic2hhcGU0NDI1LTI1IiB0cmFuc2Zvcm09InRyYW5zbGF0ZSgxMy4yMTgsLTE3Ljk4OCkiPiYjeGE7CQkJPHRpdGxlIGlkPSJ0aXRsZTg1NDg4Ij5TaGVldC40NDI1PC90aXRsZT4mI3hhOwkJCTxwYXRoIGlkPSJwYXRoODU0OTAiIGlua3NjYXBlOmNvbm5lY3Rvci1jdXJ2YXR1cmU9IjAiIHN0eWxlPSJmaWxsOiNGRkZGRkY7IiBkPSJNMCwzMC4ybDguOTItMS4wNkw2LjUzLDMzLjFMMCwzMC4yeiIvPiYjeGE7CQk8L2c+JiN4YTsJCTxnIGlkPSJzaGFwZTQ0MjYtMjciIHRyYW5zZm9ybT0idHJhbnNsYXRlKDIxLjg2NCwtMjEuODkxKSI+JiN4YTsJCQk8dGl0bGUgaWQ9InRpdGxlODU0OTMiPlNoZWV0LjQ0MjY8L3RpdGxlPiYjeGE7CQkJPHBhdGggaWQ9InBhdGg4NTQ5NSIgaW5rc2NhcGU6Y29ubmVjdG9yLWN1cnZhdHVyZT0iMCIgc3R5bGU9ImZpbGw6IzFFMUUxRTtmaWxsLW9wYWNpdHk6MC4yNTsiIGQ9Ik01LjM0LDMzLjFMMCwzMC43M2w1LjM0LTIuMzcgICAgIGw1LjMzLDIuMzdMNS4zNCwzMy4xeiIvPiYjeGE7CQk8L2c+JiN4YTsJCTxnIGlkPSJzaGFwZTQ0MjctMjkiIHRyYW5zZm9ybT0idHJhbnNsYXRlKDIxLjg2NCwtMjEuODkxKSI+JiN4YTsJCQk8dGl0bGUgaWQ9InRpdGxlODU0OTgiPlNoZWV0LjQ0Mjc8L3RpdGxlPiYjeGE7CQkJPHBhdGggaWQ9InBhdGg4NTUwMCIgaW5rc2NhcGU6Y29ubmVjdG9yLWN1cnZhdHVyZT0iMCIgc3R5bGU9ImZpbGw6IzFFMUUxRTtmaWxsLW9wYWNpdHk6MC4yNTsiIGQ9Ik01LjM0LDMzLjFMMCwzMC43M2w1LjM0LTIuMzcgICAgIFYzMy4xeiIvPiYjeGE7CQk8L2c+JiN4YTsJCTxnIGlkPSJzaGFwZTQ0MjgtMzEiIHRyYW5zZm9ybT0idHJhbnNsYXRlKDEzLjg5NjcsLTI1LjYxNTUpIj4mI3hhOwkJCTx0aXRsZSBpZD0idGl0bGU4NTUwMyI+U2hlZXQuNDQyODwvdGl0bGU+JiN4YTsJCQk8cGF0aCBpZD0icGF0aDg1NTA1IiBpbmtzY2FwZTpjb25uZWN0b3ItY3VydmF0dXJlPSIwIiBzdHlsZT0iZmlsbDojRkZGRkZGOyIgZD0iTTMuNDgsMzEuNTVMMCwzMS4yNGwzLjA5LTAuNzhsLTAuNC0xLjU3ICAgICBsMi42MiwxLjA3bDMuMjQtMC42NmwtMS40OCwxLjQ0bDIuNDEsMS4xN2wtMy41NC0wLjE4TDQuMTksMzMuMUwzLjQ4LDMxLjU1eiIvPiYjeGE7CQk8L2c+JiN4YTsJPC9nPiYjeGE7PC9nPiYjeGE7PC9zdmc+;" vertex="1" parent="1">
          <mxGeometry x="855.5" y="280" width="38" height="32" as="geometry" />
        </mxCell>
        <mxCell id="eEPwUyeg-tfcytRayrMm-2153" value="" style="shape=image;verticalLabelPosition=bottom;labelBackgroundColor=#ffffff;verticalAlign=top;aspect=fixed;imageAspect=0;image=data:image/svg+xml,PHN2ZyB4bWxuczpjYz0iaHR0cDovL2NyZWF0aXZlY29tbW9ucy5vcmcvbnMjIiB4bWxuczpkYz0iaHR0cDovL3B1cmwub3JnL2RjL2VsZW1lbnRzLzEuMS8iIHhtbG5zOmlua3NjYXBlPSJodHRwOi8vd3d3Lmlua3NjYXBlLm9yZy9uYW1lc3BhY2VzL2lua3NjYXBlIiB4bWxuczpyZGY9Imh0dHA6Ly93d3cudzMub3JnLzE5OTkvMDIvMjItcmRmLXN5bnRheC1ucyMiIHhtbG5zOnNvZGlwb2RpPSJodHRwOi8vc29kaXBvZGkuc291cmNlZm9yZ2UubmV0L0RURC9zb2RpcG9kaS0wLmR0ZCIgeG1sbnM6c3ZnPSJodHRwOi8vd3d3LnczLm9yZy8yMDAwL3N2ZyIgeG1sbnM9Imh0dHA6Ly93d3cudzMub3JnLzIwMDAvc3ZnIiB4bWxuczp4bGluaz0iaHR0cDovL3d3dy53My5vcmcvMTk5OS94bGluayIgdmVyc2lvbj0iMS4xIiBpZD0ic3ZnODU1MTEiIGlua3NjYXBlOnZlcnNpb249IjAuOTIuMyAoMjQwNTU0NiwgMjAxOC0wMy0xMSkiIHNvZGlwb2RpOmRvY25hbWU9InJlZGlzX2NhY2hlLnN2ZyIgeD0iMHB4IiB5PSIwcHgiIHZpZXdCb3g9IjAgMCAzNy41MSAzMS42IiBzdHlsZT0iZW5hYmxlLWJhY2tncm91bmQ6bmV3IDAgMCAzNy41MSAzMS42OyIgeG1sOnNwYWNlPSJwcmVzZXJ2ZSI+JiN4YTs8c29kaXBvZGk6bmFtZWR2aWV3IGJvcmRlcmNvbG9yPSIjNjY2NjY2IiBib3JkZXJvcGFjaXR5PSIxIiBmaXQtbWFyZ2luLWJvdHRvbT0iMCIgZml0LW1hcmdpbi1sZWZ0PSIwIiBmaXQtbWFyZ2luLXJpZ2h0PSIwIiBmaXQtbWFyZ2luLXRvcD0iMCIgZ3JpZHRvbGVyYW5jZT0iMTAiIGd1aWRldG9sZXJhbmNlPSIxMCIgaWQ9Im5hbWVkdmlldzg1NTEzIiBpbmtzY2FwZTpjdXJyZW50LWxheWVyPSJzdmc4NTUxMSIgaW5rc2NhcGU6Y3g9IjMwLjA3NTIzMSIgaW5rc2NhcGU6Y3k9IjAuMzQ3MzA4NDYiIGlua3NjYXBlOnBhZ2VvcGFjaXR5PSIwIiBpbmtzY2FwZTpwYWdlc2hhZG93PSIyIiBpbmtzY2FwZTp3aW5kb3ctaGVpZ2h0PSIxMDE3IiBpbmtzY2FwZTp3aW5kb3ctbWF4aW1pemVkPSIxIiBpbmtzY2FwZTp3aW5kb3ctd2lkdGg9IjE5MjAiIGlua3NjYXBlOndpbmRvdy14PSItOCIgaW5rc2NhcGU6d2luZG93LXk9Ii04IiBpbmtzY2FwZTp6b29tPSI2Ljk0NDY3MzkiIG9iamVjdHRvbGVyYW5jZT0iMTAiIHBhZ2Vjb2xvcj0iI2ZmZmZmZiIgc2hvd2dyaWQ9ImZhbHNlIj4mI3hhOwk8L3NvZGlwb2RpOm5hbWVkdmlldz4mI3hhOzxnIGlkPSJnODU1MDkiIHRyYW5zZm9ybT0idHJhbnNsYXRlKC0wLjc0NjgyNzEsLTAuNzUxNjI1KSI+JiN4YTsJPHRpdGxlIGlkPSJ0aXRsZTg1NDI1Ij5QYWdlLTE8L3RpdGxlPiYjeGE7CTxnIGlkPSJncm91cDQ0MTEtMSIgdHJhbnNmb3JtPSJ0cmFuc2xhdGUoMC40MDcyOSwtMC42MDkzNzUpIj4mI3hhOwkJPHRpdGxlIGlkPSJ0aXRsZTg1NDI3Ij5SZWRpcyBDYWNoZTwvdGl0bGU+JiN4YTsJCTxnIGlkPSJncm91cDQ0MTItMiI+JiN4YTsJCQk8dGl0bGUgaWQ9InRpdGxlODU0MjkiPlNoZWV0LjQ0MTI8L3RpdGxlPiYjeGE7CQkJPGcgaWQ9InNoYXBlNDQxMy0zIiB0cmFuc2Zvcm09InRyYW5zbGF0ZSgwLjIzNykiPiYjeGE7CQkJCTx0aXRsZSBpZD0idGl0bGU4NTQzMSI+U2hlZXQuNDQxMzwvdGl0bGU+JiN4YTsJCQkJPHBhdGggaWQ9InBhdGg4NTQzMyIgaW5rc2NhcGU6Y29ubmVjdG9yLWN1cnZhdHVyZT0iMCIgc3R5bGU9ImZpbGw6I0JBMTQxQTsiIGQ9Ik0wLjExLDI1LjE5Yy0wLjA2LDAuNCwwLjI4LDAuOCwxLjAyLDEuMTEgICAgICBsMTUuMjQsNi4yNGMxLjM3LDAuNTYsMy42LDAuNTYsNC45NywwbDE1LjI0LTYuMjRjMC43NC0wLjMxLDEuMDgtMC43MSwxLjAyLTEuMTF2LTMuNThjMC4wNSwwLjM5LTAuMjksMC43OS0xLjAyLDEuMDkgICAgICBsLTE1LjI0LDYuMjRjLTEuMzcsMC41Ni0zLjYsMC41Ni00Ljk3LDBMMS4xMywyMi43Yy0wLjgtMC4zMy0xLjEzLTAuNzgtMS0xLjJMMC4xMSwyNS4xOXoiLz4mI3hhOwkJCTwvZz4mI3hhOwkJCTxnIGlkPSJzaGFwZTQ0MTQtNSIgdHJhbnNmb3JtPSJ0cmFuc2xhdGUoMCwtMy42KSI+JiN4YTsJCQkJPHRpdGxlIGlkPSJ0aXRsZTg1NDM2Ij5TaGVldC40NDE0PC90aXRsZT4mI3hhOwkJCQk8cGF0aCBpZD0icGF0aDg1NDM4IiBpbmtzY2FwZTpjb25uZWN0b3ItY3VydmF0dXJlPSIwIiBzdHlsZT0iZmlsbDojQkExNDFBOyIgZD0iTTM2LjgxLDI0LjI2YzEuMzgsMC41NywxLjM4LDEuNDgsMCwyLjA0ICAgICAgbC0xNS4yMyw2LjI0Yy0xLjM3LDAuNTYtMy42LDAuNTYtNC45NywwTDEuMzcsMjYuM0MwLDI1Ljc0LDAsMjQuODMsMS4zNywyNC4yNmwxNS4yNC02LjI0YzEuMzctMC41NiwzLjYtMC41Niw0Ljk3LDAgICAgICBMMzYuODEsMjQuMjZ6Ii8+JiN4YTsJCQk8L2c+JiN4YTsJCTwvZz4mI3hhOwkJPGcgaWQ9Imdyb3VwNDQxNS03IiB0cmFuc2Zvcm09InRyYW5zbGF0ZSgwLC02LjMxOTUpIj4mI3hhOwkJCTx0aXRsZSBpZD0idGl0bGU4NTQ0MiI+U2hlZXQuNDQxNTwvdGl0bGU+JiN4YTsJCQk8ZyBpZD0ic2hhcGU0NDE2LTgiIHRyYW5zZm9ybT0idHJhbnNsYXRlKDAuMjM3KSI+JiN4YTsJCQkJPHRpdGxlIGlkPSJ0aXRsZTg1NDQ0Ij5TaGVldC40NDE2PC90aXRsZT4mI3hhOwkJCQk8cGF0aCBpZD0icGF0aDg1NDQ2IiBpbmtzY2FwZTpjb25uZWN0b3ItY3VydmF0dXJlPSIwIiBzdHlsZT0iZmlsbDojQkExNDFBOyIgZD0iTTAuMTEsMjUuMTljLTAuMDYsMC40LDAuMjgsMC44LDEuMDIsMS4xMSAgICAgIGwxNS4yNCw2LjI0YzEuMzcsMC41NiwzLjYsMC41Niw0Ljk3LDBsMTUuMjQtNi4yNGMwLjc0LTAuMzEsMS4wOC0wLjcxLDEuMDItMS4xMXYtMy41OGMwLjA1LDAuMzktMC4yOSwwLjc5LTEuMDIsMS4wOSAgICAgIGwtMTUuMjQsNi4yNGMtMS4zNywwLjU2LTMuNiwwLjU2LTQuOTcsMEwxLjEzLDIyLjdjLTAuOC0wLjMzLTEuMTMtMC43OC0xLTEuMkwwLjExLDI1LjE5eiIvPiYjeGE7CQkJPC9nPiYjeGE7CQkJPGcgaWQ9InNoYXBlNDQxNy0xMCIgdHJhbnNmb3JtPSJ0cmFuc2xhdGUoMCwtMy42KSI+JiN4YTsJCQkJPHRpdGxlIGlkPSJ0aXRsZTg1NDQ5Ij5TaGVldC40NDE3PC90aXRsZT4mI3hhOwkJCQk8cGF0aCBpZD0icGF0aDg1NDUxIiBpbmtzY2FwZTpjb25uZWN0b3ItY3VydmF0dXJlPSIwIiBzdHlsZT0iZmlsbDojQkExNDFBOyIgZD0iTTM2LjgxLDI0LjI2YzEuMzgsMC41NywxLjM4LDEuNDgsMCwyLjA0ICAgICAgbC0xNS4yMyw2LjI0Yy0xLjM3LDAuNTYtMy42LDAuNTYtNC45NywwTDEuMzcsMjYuM0MwLDI1Ljc0LDAsMjQuODMsMS4zNywyNC4yNmwxNS4yNC02LjI0YzEuMzctMC41NiwzLjYtMC41Niw0Ljk3LDAgICAgICBMMzYuODEsMjQuMjZ6Ii8+JiN4YTsJCQk8L2c+JiN4YTsJCTwvZz4mI3hhOwkJPGcgaWQ9Imdyb3VwNDQxOC0xMiI+JiN4YTsJCQk8dGl0bGUgaWQ9InRpdGxlODU0NTUiPlNoZWV0LjQ0MTg8L3RpdGxlPiYjeGE7CQkJPGcgaWQ9InNoYXBlNDQxOS0xMyIgdHJhbnNmb3JtPSJ0cmFuc2xhdGUoMC4yMzcsLTEyLjYzOSkiPiYjeGE7CQkJCTx0aXRsZSBpZD0idGl0bGU4NTQ1NyI+U2hlZXQuNDQxOTwvdGl0bGU+JiN4YTsJCQkJPHBhdGggaWQ9InBhdGg4NTQ1OSIgaW5rc2NhcGU6Y29ubmVjdG9yLWN1cnZhdHVyZT0iMCIgc3R5bGU9ImZpbGw6I0JBMTQxQTsiIGQ9Ik0wLjExLDI1LjE5Yy0wLjA2LDAuNCwwLjI4LDAuOCwxLjAyLDEuMTEgICAgICBsMTUuMjQsNi4yNGMxLjM3LDAuNTYsMy42LDAuNTYsNC45NywwbDE1LjI0LTYuMjRjMC43NC0wLjMxLDEuMDgtMC43MSwxLjAyLTEuMTF2LTMuNThjMC4wNSwwLjM5LTAuMjksMC43OS0xLjAyLDEuMDkgICAgICBsLTE1LjI0LDYuMjRjLTEuMzcsMC41Ni0zLjYsMC41Ni00Ljk3LDBMMS4xMywyMi43Yy0wLjgtMC4zMy0xLjEzLTAuNzgtMS0xLjJMMC4xMSwyNS4xOXoiLz4mI3hhOwkJCTwvZz4mI3hhOwkJCTxnIGlkPSJzaGFwZTQ0MjAtMTUiIHRyYW5zZm9ybT0idHJhbnNsYXRlKDAuMjM3KSI+JiN4YTsJCQkJPHRpdGxlIGlkPSJ0aXRsZTg1NDYyIj5TaGVldC40NDIwPC90aXRsZT4mI3hhOwkJCQk8cGF0aCBpZD0icGF0aDg1NDY0IiBpbmtzY2FwZTpjb25uZWN0b3ItY3VydmF0dXJlPSIwIiBzdHlsZT0iZmlsbDojMUUxRTFFO2ZpbGwtb3BhY2l0eTowLjI1OyIgZD0iTTAuMTEsMjUuMTkgICAgICBjLTAuMDYsMC40LDAuMjgsMC44LDEuMDIsMS4xMWwxNS4yNCw2LjI0YzEuMzcsMC41NiwzLjYsMC41Niw0Ljk3LDBsMTUuMjQtNi4yNGMwLjc0LTAuMzEsMS4wOC0wLjcxLDEuMDItMS4xMXYtMy41OCAgICAgIGMwLjA1LDAuMzktMC4yOSwwLjc5LTEuMDIsMS4wOWwtMTUuMjQsNi4yNGMtMS4zNywwLjU2LTMuNiwwLjU2LTQuOTcsMEwxLjEzLDIyLjdjLTAuOC0wLjMzLTEuMTMtMC43OC0xLTEuMkwwLjExLDI1LjE5eiIvPiYjeGE7CQkJPC9nPiYjeGE7CQkJPGcgaWQ9InNoYXBlNDQyMS0xNyIgdHJhbnNmb3JtPSJ0cmFuc2xhdGUoMC4yMzcsLTYuMzE5NSkiPiYjeGE7CQkJCTx0aXRsZSBpZD0idGl0bGU4NTQ2NyI+U2hlZXQuNDQyMTwvdGl0bGU+JiN4YTsJCQkJPHBhdGggaWQ9InBhdGg4NTQ2OSIgaW5rc2NhcGU6Y29ubmVjdG9yLWN1cnZhdHVyZT0iMCIgc3R5bGU9ImZpbGw6IzFFMUUxRTtmaWxsLW9wYWNpdHk6MC4yNTsiIGQ9Ik0wLjExLDI1LjE5ICAgICAgYy0wLjA2LDAuNCwwLjI4LDAuOCwxLjAyLDEuMTFsMTUuMjQsNi4yNGMxLjM3LDAuNTYsMy42LDAuNTYsNC45NywwbDE1LjI0LTYuMjRjMC43NC0wLjMxLDEuMDgtMC43MSwxLjAyLTEuMTF2LTMuNTggICAgICBjMC4wNSwwLjM5LTAuMjksMC43OS0xLjAyLDEuMDlsLTE1LjI0LDYuMjRjLTEuMzcsMC41Ni0zLjYsMC41Ni00Ljk3LDBMMS4xMywyMi43Yy0wLjgtMC4zMy0xLjEzLTAuNzgtMS0xLjJMMC4xMSwyNS4xOXoiLz4mI3hhOwkJCTwvZz4mI3hhOwkJCTxnIGlkPSJzaGFwZTQ0MjItMTkiIHRyYW5zZm9ybT0idHJhbnNsYXRlKDAuMjM3LC0xMi42MzkpIj4mI3hhOwkJCQk8dGl0bGUgaWQ9InRpdGxlODU0NzIiPlNoZWV0LjQ0MjI8L3RpdGxlPiYjeGE7CQkJCTxwYXRoIGlkPSJwYXRoODU0NzQiIGlua3NjYXBlOmNvbm5lY3Rvci1jdXJ2YXR1cmU9IjAiIHN0eWxlPSJmaWxsOiMxRTFFMUU7ZmlsbC1vcGFjaXR5OjAuMjU7IiBkPSJNMC4xMSwyNS4xOSAgICAgIGMtMC4wNiwwLjQsMC4yOCwwLjgsMS4wMiwxLjExbDE1LjI0LDYuMjRjMS4zNywwLjU2LDMuNiwwLjU2LDQuOTcsMGwxNS4yNC02LjI0YzAuNzQtMC4zMSwxLjA4LTAuNzEsMS4wMi0xLjExdi0zLjU4ICAgICAgYzAuMDUsMC4zOS0wLjI5LDAuNzktMS4wMiwxLjA5bC0xNS4yNCw2LjI0Yy0xLjM3LDAuNTYtMy42LDAuNTYtNC45NywwTDEuMTMsMjIuN2MtMC44LTAuMzMtMS4xMy0wLjc4LTEtMS4yTDAuMTEsMjUuMTl6Ii8+JiN4YTsJCQk8L2c+JiN4YTsJCQk8ZyBpZD0ic2hhcGU0NDIzLTIxIiB0cmFuc2Zvcm09InRyYW5zbGF0ZSgwLC0xNi4yMzkpIj4mI3hhOwkJCQk8dGl0bGUgaWQ9InRpdGxlODU0NzciPlNoZWV0LjQ0MjM8L3RpdGxlPiYjeGE7CQkJCTxwYXRoIGlkPSJwYXRoODU0NzkiIGlua3NjYXBlOmNvbm5lY3Rvci1jdXJ2YXR1cmU9IjAiIHN0eWxlPSJmaWxsOiNCQTE0MUE7IiBkPSJNMzYuODEsMjQuMjZjMS4zOCwwLjU3LDEuMzgsMS40OCwwLDIuMDQgICAgICBsLTE1LjIzLDYuMjRjLTEuMzcsMC41Ni0zLjYsMC41Ni00Ljk3LDBMMS4zNywyNi4zQzAsMjUuNzQsMCwyNC44MywxLjM3LDI0LjI2bDE1LjI0LTYuMjRjMS4zNy0wLjU2LDMuNi0wLjU2LDQuOTcsMCAgICAgIEwzNi44MSwyNC4yNnoiLz4mI3hhOwkJCTwvZz4mI3hhOwkJPC9nPiYjeGE7CQk8ZyBpZD0ic2hhcGU0NDI0LTIzIiB0cmFuc2Zvcm09InRyYW5zbGF0ZSg2LjM2MTUsLTIyLjExMjMpIj4mI3hhOwkJCTx0aXRsZSBpZD0idGl0bGU4NTQ4MyI+U2hlZXQuNDQyNDwvdGl0bGU+JiN4YTsJCQk8cGF0aCBpZD0icGF0aDg1NDg1IiBpbmtzY2FwZTpjb25uZWN0b3ItY3VydmF0dXJlPSIwIiBzdHlsZT0iZmlsbDojRkZGRkZGOyIgZD0iTTguMDQsMzIuMzNjLTEuNzQsMC43Ny00LjU2LDAuNzctNi4zLDAgICAgIEMwLDMxLjU2LDAsMzAuMywxLjc0LDI5LjUzYzEuNzQtMC43Nyw0LjU2LTAuNzcsNi4zLDBDOS43NywzMC4zLDkuNzgsMzEuNTYsOC4wNCwzMi4zM3oiLz4mI3hhOwkJPC9nPiYjeGE7CQk8ZyBpZD0ic2hhcGU0NDI1LTI1IiB0cmFuc2Zvcm09InRyYW5zbGF0ZSgxMy4yMTgsLTE3Ljk4OCkiPiYjeGE7CQkJPHRpdGxlIGlkPSJ0aXRsZTg1NDg4Ij5TaGVldC40NDI1PC90aXRsZT4mI3hhOwkJCTxwYXRoIGlkPSJwYXRoODU0OTAiIGlua3NjYXBlOmNvbm5lY3Rvci1jdXJ2YXR1cmU9IjAiIHN0eWxlPSJmaWxsOiNGRkZGRkY7IiBkPSJNMCwzMC4ybDguOTItMS4wNkw2LjUzLDMzLjFMMCwzMC4yeiIvPiYjeGE7CQk8L2c+JiN4YTsJCTxnIGlkPSJzaGFwZTQ0MjYtMjciIHRyYW5zZm9ybT0idHJhbnNsYXRlKDIxLjg2NCwtMjEuODkxKSI+JiN4YTsJCQk8dGl0bGUgaWQ9InRpdGxlODU0OTMiPlNoZWV0LjQ0MjY8L3RpdGxlPiYjeGE7CQkJPHBhdGggaWQ9InBhdGg4NTQ5NSIgaW5rc2NhcGU6Y29ubmVjdG9yLWN1cnZhdHVyZT0iMCIgc3R5bGU9ImZpbGw6IzFFMUUxRTtmaWxsLW9wYWNpdHk6MC4yNTsiIGQ9Ik01LjM0LDMzLjFMMCwzMC43M2w1LjM0LTIuMzcgICAgIGw1LjMzLDIuMzdMNS4zNCwzMy4xeiIvPiYjeGE7CQk8L2c+JiN4YTsJCTxnIGlkPSJzaGFwZTQ0MjctMjkiIHRyYW5zZm9ybT0idHJhbnNsYXRlKDIxLjg2NCwtMjEuODkxKSI+JiN4YTsJCQk8dGl0bGUgaWQ9InRpdGxlODU0OTgiPlNoZWV0LjQ0Mjc8L3RpdGxlPiYjeGE7CQkJPHBhdGggaWQ9InBhdGg4NTUwMCIgaW5rc2NhcGU6Y29ubmVjdG9yLWN1cnZhdHVyZT0iMCIgc3R5bGU9ImZpbGw6IzFFMUUxRTtmaWxsLW9wYWNpdHk6MC4yNTsiIGQ9Ik01LjM0LDMzLjFMMCwzMC43M2w1LjM0LTIuMzcgICAgIFYzMy4xeiIvPiYjeGE7CQk8L2c+JiN4YTsJCTxnIGlkPSJzaGFwZTQ0MjgtMzEiIHRyYW5zZm9ybT0idHJhbnNsYXRlKDEzLjg5NjcsLTI1LjYxNTUpIj4mI3hhOwkJCTx0aXRsZSBpZD0idGl0bGU4NTUwMyI+U2hlZXQuNDQyODwvdGl0bGU+JiN4YTsJCQk8cGF0aCBpZD0icGF0aDg1NTA1IiBpbmtzY2FwZTpjb25uZWN0b3ItY3VydmF0dXJlPSIwIiBzdHlsZT0iZmlsbDojRkZGRkZGOyIgZD0iTTMuNDgsMzEuNTVMMCwzMS4yNGwzLjA5LTAuNzhsLTAuNC0xLjU3ICAgICBsMi42MiwxLjA3bDMuMjQtMC42NmwtMS40OCwxLjQ0bDIuNDEsMS4xN2wtMy41NC0wLjE4TDQuMTksMzMuMUwzLjQ4LDMxLjU1eiIvPiYjeGE7CQk8L2c+JiN4YTsJPC9nPiYjeGE7PC9nPiYjeGE7PC9zdmc+;" vertex="1" parent="1">
          <mxGeometry x="845" y="660" width="38" height="32" as="geometry" />
        </mxCell>
        <mxCell id="eEPwUyeg-tfcytRayrMm-2155" value="" style="rounded=1;whiteSpace=wrap;html=1;dashed=1;strokeColor=none;strokeWidth=2;fillColor=#E6E6E6;fontFamily=Verdana;fontSize=12;fontColor=#00BEF2" vertex="1" parent="1">
          <mxGeometry x="550" y="1030" width="630" height="120" as="geometry" />
        </mxCell>
        <mxCell id="eEPwUyeg-tfcytRayrMm-2156" value="" style="shape=image;verticalLabelPosition=bottom;labelBackgroundColor=#ffffff;verticalAlign=top;aspect=fixed;imageAspect=0;image=data:image/svg+xml,PHN2ZyB4bWxuczpjYz0iaHR0cDovL2NyZWF0aXZlY29tbW9ucy5vcmcvbnMjIiB4bWxuczpkYz0iaHR0cDovL3B1cmwub3JnL2RjL2VsZW1lbnRzLzEuMS8iIHhtbG5zOmlua3NjYXBlPSJodHRwOi8vd3d3Lmlua3NjYXBlLm9yZy9uYW1lc3BhY2VzL2lua3NjYXBlIiB4bWxuczpyZGY9Imh0dHA6Ly93d3cudzMub3JnLzE5OTkvMDIvMjItcmRmLXN5bnRheC1ucyMiIHhtbG5zOnNvZGlwb2RpPSJodHRwOi8vc29kaXBvZGkuc291cmNlZm9yZ2UubmV0L0RURC9zb2RpcG9kaS0wLmR0ZCIgeG1sbnM6c3ZnPSJodHRwOi8vd3d3LnczLm9yZy8yMDAwL3N2ZyIgeG1sbnM9Imh0dHA6Ly93d3cudzMub3JnLzIwMDAvc3ZnIiB4bWxuczp4bGluaz0iaHR0cDovL3d3dy53My5vcmcvMTk5OS94bGluayIgdmVyc2lvbj0iMS4xIiBpZD0ic3ZnMTY2NTAyIiBpbmtzY2FwZTp2ZXJzaW9uPSIwLjkyLjMgKDI0MDU1NDYsIDIwMTgtMDMtMTEpIiBzb2RpcG9kaTpkb2NuYW1lPSJkb2NrZXJfdG9vbHMuc3ZnIiB4PSIwcHgiIHk9IjBweCIgdmlld0JveD0iMCAwIDk5LjIyIDgzLjI0IiBzdHlsZT0iZW5hYmxlLWJhY2tncm91bmQ6bmV3IDAgMCA5OS4yMiA4My4yNDsiIHhtbDpzcGFjZT0icHJlc2VydmUiPiYjeGE7PHNvZGlwb2RpOm5hbWVkdmlldyBib3JkZXJjb2xvcj0iIzY2NjY2NiIgYm9yZGVyb3BhY2l0eT0iMSIgZml0LW1hcmdpbi1ib3R0b209IjAiIGZpdC1tYXJnaW4tbGVmdD0iMCIgZml0LW1hcmdpbi1yaWdodD0iMCIgZml0LW1hcmdpbi10b3A9IjAiIGdyaWR0b2xlcmFuY2U9IjEwIiBndWlkZXRvbGVyYW5jZT0iMTAiIGlkPSJuYW1lZHZpZXcxNjY1MDQiIGlua3NjYXBlOmN1cnJlbnQtbGF5ZXI9InN2ZzE2NjUwMiIgaW5rc2NhcGU6Y3g9IjY2LjE0MTY1NiIgaW5rc2NhcGU6Y3k9IjU1LjQ5MzEwOCIgaW5rc2NhcGU6cGFnZW9wYWNpdHk9IjAiIGlua3NjYXBlOnBhZ2VzaGFkb3c9IjIiIGlua3NjYXBlOndpbmRvdy1oZWlnaHQ9IjEwMTciIGlua3NjYXBlOndpbmRvdy1tYXhpbWl6ZWQ9IjEiIGlua3NjYXBlOndpbmRvdy13aWR0aD0iMTkyMCIgaW5rc2NhcGU6d2luZG93LXg9Ii04IiBpbmtzY2FwZTp3aW5kb3cteT0iLTgiIGlua3NjYXBlOnpvb209IjYuNTk5MDg5OCIgb2JqZWN0dG9sZXJhbmNlPSIxMCIgcGFnZWNvbG9yPSIjZmZmZmZmIiBzaG93Z3JpZD0iZmFsc2UiPiYjeGE7CTwvc29kaXBvZGk6bmFtZWR2aWV3PiYjeGE7PGcgaWQ9ImcxNjY1MDAiIHRyYW5zZm9ybT0idHJhbnNsYXRlKC03LjY1LC03LjY0OTMyOSkiPiYjeGE7CTx0aXRsZSBpZD0idGl0bGUxNjYzODQiPlBhZ2UtMTwvdGl0bGU+JiN4YTsJPGcgaWQ9Imdyb3VwMTM3Ny0xIiB0cmFuc2Zvcm09InRyYW5zbGF0ZSg3LjY1LC03LjE0MTc0KSI+JiN4YTsJCTx0aXRsZSBpZD0idGl0bGUxNjYzODYiPkRvY2tlciBUb29sczwvdGl0bGU+JiN4YTsJCTxnIGlkPSJzaGFwZTEzNzgtMiIgdHJhbnNmb3JtPSJ0cmFuc2xhdGUoMC4wNjc0MTM3KSI+JiN4YTsJCQk8dGl0bGUgaWQ9InRpdGxlMTY2Mzg4Ij5kb2NrZXJfNF88L3RpdGxlPiYjeGE7CQkJPHBhdGggaWQ9InBhdGgxNjYzOTAiIGlua3NjYXBlOmNvbm5lY3Rvci1jdXJ2YXR1cmU9IjAiIHN0eWxlPSJmaWxsOiMzRjU3NjU7IiBkPSJNNzMuMzksOTIuNzljMi4yMy0xLjkxLDQuNDYtMy44Myw2LjY5LTUuNzUgICAgIGMwLjc2LTAuNjYsMS41OS0xLjM0LDIuMzUtMi4wM2MtMC42MS0wLjc2LTEuNjItMS4zMS0yLjQ4LTEuNjRjLTEuNzMtMC42Ni0zLjQ0LTAuNDQtNS4wMywwLjQ4Yy0yLjA5LDEuMi0yLjk3LDMuMTItMi44OSw1LjUgICAgIGMwLjAzLDAuOTQsMC4yOCwxLjg0LDAuNzgsMi42NEM3Mi45OCw5Mi4yNyw3My4xOCw5Mi41NCw3My4zOSw5Mi43OXogTTc1Ljk3LDk0LjZjMS4xLDAuMzgsMi4zNCwwLjMzLDMuNDcsMC4xNCAgICAgYzAuNTctMC4yNSwyLjA0LTAuODksMi41OC0wLjhsMC4wOCwwLjAyTDgyLjE4LDk0YzAuMzMsMC4xNiwwLjY0LDAuMzgsMC44MSwwLjcyYzAuNCwwLjc5LDAuMjEsMS41Ny0wLjU3LDIuMDJsLTAuMjUsMC4xNSAgICAgYy0yLjg1LDEuNjUtNS44OSwxLjQyLTguNzMtMC4xMmMtMS4zNi0wLjczLTIuNC0xLjgyLTMuMTctMy4xNmwtMC4xOC0wLjMxYy0xLjgzLTMuMTctMS41OC02LjUsMC40OC05LjUyICAgICBjMC43Mi0xLjA0LDEuNjUtMS44NSwyLjc0LTIuNDhsMC40MS0wLjIzYzIuNjktMS41NSw1LjU3LTEuNDUsOC4zMy0wLjA5YzEuNDgsMC43MywyLjY4LDEuODMsMy41MSwzLjI2bDAuMTUsMC4yNiAgICAgYzAuNiwxLjA0LTAuMTgsMS45NS0wLjk4LDIuNTdjLTAuOTQsMC43Mi0xLjg4LDEuNTktMi43OCwyLjM2Qzc5Ljk2LDkxLjE1LDc3Ljk3LDkyLjg4LDc1Ljk3LDk0LjZ6IE05Ny4zNCw4MC4xOGgwLjMgICAgIGMwLjksMCwxLjUxLDAuNjEsMS41MSwxLjVjMCwxLjI1LTEuMiwxLjU3LTIuMjIsMS41N2MtMS4zNiwwLTIuNjQsMC44MS0zLjU3LDEuNzNjLTEuMTcsMS4xNS0xLjY3LDIuNjEtMS42Nyw0LjIydjcuMjggICAgIGMwLDAuODMtMC41MiwxLjUxLTEuMzksMS41MWgtMC4yNGMtMC44NiwwLTEuMzgtMC42OC0xLjM4LTEuNTF2LTcuN2MwLTIuOTUsMS40NC01LjM2LDMuODQtNy4wNiAgICAgQzkzLjk1LDgwLjcxLDk1LjU5LDgwLjE4LDk3LjM0LDgwLjE4eiBNNTkuODcsODUuMzRjMS4xNi0xLjE3LDIuMzQtMi4zMywzLjUyLTMuNDhjMC4zMy0wLjMyLDEuNTgtMS42OCwyLjA4LTEuNjhINjZsMC4wNiwwLjAxICAgICBjMC42OSwwLjE0LDEuMiwwLjU4LDEuMiwxLjMxdjAuM2MwLDAuNS0wLjU5LDEuMDktMC45MSwxLjQzYy0wLjY5LDAuNzQtMS40MiwxLjQ0LTIuMTMsMi4xNmwtMy42MywzLjY5ICAgICBjMS41NywxLjU2LDMuMTMsMy4xMyw0LjY4LDQuNzFjMC40MywwLjQ0LDAuODYsMC44OCwxLjI4LDEuMzJjMC4xNSwwLjE2LDAuMzcsMC4zNSwwLjUsMC41N2MwLjEzLDAuMjEsMC4yMSwwLjQ0LDAuMjEsMC42OHYwLjMxICAgICBsLTAuMDEsMC4wN2MtMC4xNywwLjY5LTAuNjEsMS4yNC0xLjM3LDEuMjRoLTAuMjRjLTAuNSwwLTEuMDYtMC41Ni0xLjQtMC44OGMtMC43LTAuNjYtMS4zOC0xLjM2LTIuMDctMi4wM2wtMi4zMS0yLjI3djMuNjIgICAgIGMwLDAuODQtMC41MiwxLjUxLTEuMzgsMS41MWgtMC4yNGMtMC44NiwwLTEuMzgtMC42Ny0xLjM4LTEuNTFWNzYuMDFjMC0wLjgzLDAuNTItMS41LDEuMzgtMS41aDAuMjRjMC44NiwwLDEuMzgsMC42NywxLjM4LDEuNSAgICAgTDU5Ljg3LDg1LjM0TDU5Ljg3LDg1LjM0eiBNNTAuMTIsODMuMzFjLTAuNDYtMC4yMS0xLjMxLTAuMjktMS44LTAuM2MtMi41MS0wLjEtNC4zMywxLjMyLTUuNCwzLjUzICAgICBjLTAuMzYsMC43Ny0wLjUzLDEuNTgtMC41MywyLjQyYzAsMi41OCwxLjM1LDQuMzgsMy42NSw1LjQ4YzAuODQsMC40LDEuOTIsMC40OCwyLjg0LDAuNDhjMC44MSwwLDEuOTUtMC41LDIuNjYtMC44NGwwLjEzLTAuMDYgICAgIGgwLjU2bDAuMDYsMC4wMmMwLjY4LDAuMTQsMS4yLDAuNTcsMS4yLDEuMzF2MC4zYzAsMS44My0zLjM1LDIuMjUtNC42MywyLjM0Yy00LjUsMC4zMS03Ljg3LTIuMTctOS4xNS02LjQ2ICAgICBjLTAuMjMtMC43NS0wLjMzLTEuNDktMC4zMy0yLjI3di0wLjZjMC0zLjI2LDEuNjItNS44NCw0LjQyLTcuNWMxLjMtMC43NywyLjczLTEuMTYsNC4yNS0xLjE2aDAuNTljMS42LDAsMy4wOCwwLjQ1LDQuNCwxLjM2ICAgICBsMC4xMSwwLjA3bDAuMDcsMC4xMmMwLjE0LDAuMjMsMC4yNywwLjUxLDAuMjcsMC43OXYwLjNjMCwwLjc2LTAuNTgsMS4xOC0xLjI3LDEuMzFsLTAuMDYsMC4wMWgtMC4xOCAgICAgQzUxLjUzLDgzLjk2LDUwLjUyLDgzLjUsNTAuMTIsODMuMzF6IE0yMi43LDg5LjAyYzAsMi4yOSwxLjEyLDMuOTcsMy4wNSw1LjE1YzAuOTEsMC41NiwxLjksMC44MSwyLjk2LDAuODEgICAgIGMyLjI2LDAsMy45My0xLjE1LDUuMDktMy4wNWMwLjU2LTAuOTEsMC44MS0xLjkxLDAuODEtMi45N2MwLTIuMTItMS4wMy0zLjc1LTIuNzgtNC45MmMtMC45Ni0wLjY1LTIuMDItMC45Ny0zLjE4LTAuOTcgICAgIGMtMi41MiwwLTQuMzMsMS4yNy01LjQyLDMuNTNDMjIuODYsODcuMzYsMjIuNyw4OC4xOCwyMi43LDg5LjAyeiBNMjguMzUsODAuMDZoMC40MmMzLjQ5LDAsNi4xNCwxLjY5LDcuODEsNC43MyAgICAgYzAuNjgsMS4yMiwxLjAzLDIuNTQsMS4wMywzLjk0djAuNTljMCwzLjI2LTEuNiw1Ljg2LTQuNDEsNy41MWMtMS4zLDAuNzYtMi43NCwxLjE1LTQuMjUsMS4xNWgtMC42Yy0zLjI2LDAtNS44NS0xLjYxLTcuNS00LjQxICAgICBjLTAuNzctMS4zLTEuMTYtMi43NC0xLjE2LTQuMjV2LTAuNTljMC0zLjI3LDEuNjItNS44NSw0LjQxLTcuNTFDMjUuNDEsODAuNDUsMjYuODQsODAuMDYsMjguMzUsODAuMDZ6IE0zLjAxLDg5LjAyICAgICBjMCwyLjM2LDEuMTQsNC4xMywzLjIsNS4yNmMwLjg0LDAuNDUsMS43NCwwLjcsMi42OSwwLjdjMi4zMSwwLDQuMDMtMS4wOSw1LjIxLTMuMDVjMC41NS0wLjkxLDAuODEtMS45MSwwLjgxLTIuOTcgICAgIGMwLTIuMDQtMC45Ny0zLjYzLTIuNjItNC44MmMtMC45OS0wLjcxLTIuMTItMS4wNy0zLjM0LTEuMDdjLTIuNTIsMC00LjMzLDEuMjctNS40MiwzLjUzQzMuMTcsODcuMzYsMy4wMSw4OC4xOCwzLjAxLDg5LjAyeiAgICAgIE0xNC45Miw4Mi4zdi02LjM1YzAtMC44MywwLjUyLTEuNSwxLjM4LTEuNWgwLjI0YzAuODcsMCwxLjM4LDAuNjcsMS4zOCwxLjV2MTMuMzdjMCwzLjI2LTEuNjEsNS44NS00LjQxLDcuNTEgICAgIGMtMS4zLDAuNzYtMi43NCwxLjE2LTQuMjUsMS4xNmgtMC42Yy0zLjI2LDAtNS44NS0xLjYyLTcuNS00LjQyQzAuMzksOTIuMjcsMCw5MC44MywwLDg5LjMydi0wLjU5YzAtMy4yNiwxLjYxLTUuODYsNC40MS03LjUxICAgICBjMS4zMS0wLjc3LDIuNzQtMS4xNiw0LjI1LTEuMTZoMC42QzExLjQ3LDgwLjA2LDEzLjM0LDgwLjkxLDE0LjkyLDgyLjN6Ii8+JiN4YTsJCTwvZz4mI3hhOwkJPGcgaWQ9InNoYXBlMTM3OS00IiB0cmFuc2Zvcm09InRyYW5zbGF0ZSgxMS44MzQzLC0yNy41NDkzKSI+JiN4YTsJCQk8dGl0bGUgaWQ9InRpdGxlMTY2MzkzIj5vdXRsaW5lXzdfPC90aXRsZT4mI3hhOwkJCTxwYXRoIGlkPSJwYXRoMTY2Mzk1IiBpbmtzY2FwZTpjb25uZWN0b3ItY3VydmF0dXJlPSIwIiBzdHlsZT0iZmlsbDojMzk0RDU0OyIgZD0iTTQ1LjQsNjAuMDloOC44N3Y5LjA3aDQuNDkgICAgIGMyLjA3LDAsNC4yLTAuMzcsNi4xNi0xLjA0YzAuOTYtMC4zMiwyLjA1LTAuNzgsMy0xLjM1Yy0xLjI2LTEuNjQtMS44OS0zLjctMi4wOC01Ljc0Yy0wLjI2LTIuNzYsMC4zLTYuMzcsMi4xNy04LjUzbDAuOTQtMS4wOCAgICAgbDEuMTEsMC44OWMyLjgsMi4yNSw1LjE1LDUuMzksNS41Niw4Ljk3YzMuMzctMC45OSw3LjMzLTAuNzYsMTAuMywwLjk2bDEuMjIsMC43bC0wLjY0LDEuMjVjLTIuNTIsNC45MS03Ljc3LDYuNDItMTIuOSw2LjE1ICAgICBjLTcuNjgsMTkuMTQtMjQuNDEsMjguMi00NC42OCwyOC4yYy0xMC40OCwwLTIwLjA5LTMuOTItMjUuNTctMTMuMjJsLTAuMDktMC4xNWwtMC43OS0xLjYyQzAuNjIsNzkuNDYsMCw3NC45OCwwLjQyLDcwLjUgICAgIGwwLjEyLTEuMzRoNy41OXYtOS4wN0gxN3YtOC44OGgxNy43NXYtOC44N2gxMC42NHYxNy43NUg0NS40eiIvPiYjeGE7CQk8L2c+JiN4YTsJCTxnIGlkPSJncm91cDEzODAtNiIgdHJhbnNmb3JtPSJ0cmFuc2xhdGUoMTMuMjcwMywtMjkuMDI4NikiPiYjeGE7CQkJPHRpdGxlIGlkPSJ0aXRsZTE2NjM5OCI+Ym9keV9jb2xvcnNfOF88L3RpdGxlPiYjeGE7CQkJPGcgaWQ9InNoYXBlMTM4MS03Ij4mI3hhOwkJCQk8dGl0bGUgaWQ9InRpdGxlMTY2NDAwIj5TaGVldC4xMzgxPC90aXRsZT4mI3hhOwkJCQk8cGF0aCBpZD0icGF0aDE2NjQwMiIgaW5rc2NhcGU6Y29ubmVjdG9yLWN1cnZhdHVyZT0iMCIgc3R5bGU9ImZpbGw6IzAwQUFEQTsiIGQ9Ik03Mi43MSw2NC45MmMwLjU5LTQuNjItMi44Ny04LjI1LTUuMDItOS45OCAgICAgIGMtMi40NywyLjg2LTIuODUsMTAuMzUsMS4wMywxMy41MWMtMi4xNywxLjkyLTYuNzMsMy42Ni0xMS40LDMuNjZIMC40NUMwLDc2Ljk5LDAuODYsODEuNDgsMi44MSw4NS4zM2wwLjY1LDEuMTggICAgICBjMC40MSwwLjY5LDAuODYsMS4zNiwxLjM0LDIuMDFsMCwwYzIuMzQsMC4xNSw0LjQ5LDAuMiw2LjQ2LDAuMTZjMCwwLDAsMCwwLjAxLDBjMy44Ny0wLjA5LDcuMDMtMC41NCw5LjQzLTEuMzcgICAgICBjMC4zNi0wLjEzLDAuNzUsMC4wNiwwLjg3LDAuNDJjMC4xMiwwLjM1LTAuMDcsMC43NC0wLjQyLDAuODdjLTAuMzIsMC4xMS0wLjY1LDAuMjEtMSwwLjMxbDAsMGMtMS44OSwwLjU0LTMuOTEsMC45LTYuNTIsMS4wNiAgICAgIGMwLjE2LDAtMC4xNiwwLjAyLTAuMTYsMC4wMmMtMC4wOSwwLjAxLTAuMiwwLjAyLTAuMjksMC4wM2MtMS4wMywwLjA1LTIuMTQsMC4wNy0zLjI3LDAuMDdjLTEuMjQsMC0yLjQ2LTAuMDMtMy44My0wLjEgICAgICBsLTAuMDMsMC4wM2M0LjczLDUuMzIsMTIuMTQsOC41MiwyMS40Myw4LjUyYzE5LjY1LDAsMzYuMzItOC43Miw0My43LTI4LjI4YzUuMjQsMC41NCwxMC4yNy0wLjc5LDEyLjU2LTUuMjYgICAgICBDODAuMSw2Mi44OSw3NS40MSw2My41Niw3Mi43MSw2NC45MnoiLz4mI3hhOwkJCTwvZz4mI3hhOwkJCTxnIGlkPSJzaGFwZTEzODItOSIgdHJhbnNmb3JtPSJ0cmFuc2xhdGUoMy41ODk0NiwtNS4xNDc2MSkiPiYjeGE7CQkJCTx0aXRsZSBpZD0idGl0bGUxNjY0MDUiPlNoZWV0LjEzODI8L3RpdGxlPiYjeGE7CQkJCTxwYXRoIGlkPSJwYXRoMTY2NDA3IiBpbmtzY2FwZTpjb25uZWN0b3ItY3VydmF0dXJlPSIwIiBzdHlsZT0iZmlsbDojMjRCOEVCOyIgZD0iTTY5LjEyLDcwLjA3YzAuNTktNC42My0yLjg3LTguMjYtNS4wMS05Ljk4ICAgICAgYy0yLjQ4LDIuODYtMi44NiwxMC4zNSwxLjAyLDEzLjUxYy0yLjE3LDEuOTItNi43MywzLjY2LTExLjQsMy42NkgwLjIzQzAsODQuNzMsMi43Nyw5MC40LDcuNjcsOTMuODNjMCwwLDAsMCwwLjAxLDAgICAgICBjMy44Ny0wLjA5LDcuMDMtMC41NSw5LjQzLTEuMzhjMC4zNi0wLjEyLDAuNzUsMC4wNywwLjg3LDAuNDNjMC4xMiwwLjM1LTAuMDcsMC43NC0wLjQyLDAuODZjLTAuMzIsMC4xMi0wLjY1LDAuMjItMSwwLjMybDAsMCAgICAgIGMtMS44OSwwLjUzLTQuMDgsMC45NC02LjY5LDEuMTFjMCwwLTAuMDctMC4wNy0wLjA3LTAuMDZjNi42OSwzLjQzLDE2LjM5LDMuNDEsMjcuNTEtMC44NmMxMi40Ny00Ljc5LDI0LjA3LTEzLjkxLDMyLjE2LTI0LjM1ICAgICAgQzY5LjM1LDY5Ljk1LDY5LjIzLDcwLjAxLDY5LjEyLDcwLjA3eiIvPiYjeGE7CQkJPC9nPiYjeGE7CQkJPGcgaWQ9InNoYXBlMTM4My0xMSIgdHJhbnNmb3JtPSJ0cmFuc2xhdGUoMC41NjA5MzMpIj4mI3hhOwkJCQk8dGl0bGUgaWQ9InRpdGxlMTY2NDEwIj5TaGVldC4xMzgzPC90aXRsZT4mI3hhOwkJCQk8cGF0aCBpZD0icGF0aDE2NjQxMiIgaW5rc2NhcGU6Y29ubmVjdG9yLWN1cnZhdHVyZT0iMCIgc3R5bGU9ImZpbGw6IzAwOEJCODsiIGQ9Ik0wLDc4LjA0YzAuMzUsMi42MSwxLjEyLDUuMDYsMi4yNSw3LjI4ICAgICAgbDAuNjUsMS4xOWMwLjQxLDAuNjksMC44NSwxLjM2LDEuMzQsMi4wMWMyLjM0LDAuMTUsNC40OSwwLjIsNi40NiwwLjE2YzMuODgtMC4wOSw3LjA0LTAuNTQsOS40NC0xLjM4ICAgICAgYzAuMzYtMC4xMiwwLjc0LDAuMDcsMC44NywwLjQzYzAuMTIsMC4zNS0wLjA3LDAuNzQtMC40MiwwLjg3Yy0wLjMyLDAuMTEtMC42NiwwLjIxLTEsMC4zMWwwLDBjLTEuODksMC41NC00LjA3LDAuOTItNi42OCwxLjA4ICAgICAgQzEyLjgyLDkwLDEyLjY2LDkwLDEyLjU3LDkwLjAxYy0xLjAyLDAuMDUtMi4xMiwwLjA5LTMuMjYsMC4wOWMtMS4yNCwwLTIuNTEtMC4wMi0zLjg3LTAuMDljNC43NCw1LjMyLDEyLjE5LDguNTMsMjEuNDgsOC41MyAgICAgIGMxNi44MiwwLDMxLjQ2LTYuMzksMzkuOTYtMjAuNUwwLDc4LjA0eiIvPiYjeGE7CQkJPC9nPiYjeGE7CQkJPGcgaWQ9InNoYXBlMTM4NC0xMyIgdHJhbnNmb3JtPSJ0cmFuc2xhdGUoNC4zMzM1NiwtNS4xMTE5OSkiPiYjeGE7CQkJCTx0aXRsZSBpZD0idGl0bGUxNjY0MTUiPlNoZWV0LjEzODQ8L3RpdGxlPiYjeGE7CQkJCTxwYXRoIGlkPSJwYXRoMTY2NDE3IiBpbmtzY2FwZTpjb25uZWN0b3ItY3VydmF0dXJlPSIwIiBzdHlsZT0iZmlsbDojMDM5QkM2OyIgZD0iTTAsODMuMTVjMS4wMSw0LjU5LDMuNDIsOC4xOSw2LjkzLDEwLjY0ICAgICAgYzMuODgtMC4wOCw3LjA0LTAuNTQsOS40NC0xLjM3YzAuMzUtMC4xMywwLjc0LDAuMDYsMC44NywwLjQyYzAuMTIsMC4zNi0wLjA3LDAuNzQtMC40MywwLjg3Yy0wLjMyLDAuMTEtMC42NSwwLjIxLTAuOTksMC4zMSAgICAgIGwwLDBjLTEuODksMC41NC00LjEyLDAuOTItNi43MywxLjA5YzYuNjksMy40MywxNi4zNiwzLjM4LDI3LjQ3LTAuODljNi43My0yLjU5LDEzLjItNi40MywxOS4wMS0xMS4wN0wwLDgzLjE1eiIvPiYjeGE7CQkJPC9nPiYjeGE7CQk8L2c+JiN4YTsJCTxnIGlkPSJzaGFwZTEzODUtMTUiIHRyYW5zZm9ybT0idHJhbnNsYXRlKDE2Ljk1OSwtMzcuNTAzNikiPiYjeGE7CQkJPHRpdGxlIGlkPSJ0aXRsZTE2NjQyMSI+U2hlZXQuMTM4NTwvdGl0bGU+JiN4YTsJCQk8cGF0aCBpZD0icGF0aDE2NjQyMyIgaW5rc2NhcGU6Y29ubmVjdG9yLWN1cnZhdHVyZT0iMCIgc3R5bGU9ImZpbGw6IzM5NEQ1NDsiIGQ9Ik02LjIsOTguNTRjMS4xMywwLDIuMjEtMC4wMywzLjI0LTAuMDkgICAgIGMwLjA5LTAuMDEsMC4xNy0wLjAxLDAuMjYtMC4wMmMwLjAxLDAsMC4wMSwwLDAuMDEsMGMyLjYxLTAuMTYsNC44Ny0wLjUxLDYuNzUtMS4wNWwwLDBjMC4zNS0wLjA5LDAuNjgtMC4yLDEtMC4zMSAgICAgYzAuMzUtMC4xMiwwLjU0LTAuNTEsMC40Mi0wLjg3Yy0wLjEyLTAuMzUtMC41MS0wLjU0LTAuODctMC40MmMtMi40LDAuODMtNS41NiwxLjI5LTkuNDMsMS4zN2wwLDBjLTEuOTgsMC4wNS00LjEzLDAtNi40Ny0wLjE1ICAgICBsMCwwYy0wLjEyLTAuMDEtMC4yNC0wLjAyLTAuMzYtMC4wM2MtMC4zNy0wLjAyLTAuNywwLjI2LTAuNzIsMC42NGMtMC4wMywwLjM3LDAuMjUsMC43LDAuNjMsMC43MyAgICAgYzAuNDgsMC4wMywwLjk1LDAuMDYsMS40MSwwLjA4YzAuMDcsMCwwLjE0LDAuMDEsMC4yMiwwLjAxQzMuNjUsOTguNSw0Ljk2LDk4LjU0LDYuMiw5OC41NEw2LjIsOTguNTR6Ii8+JiN4YTsJCTwvZz4mI3hhOwkJPGcgaWQ9Imdyb3VwMTM4Ni0xNyIgdHJhbnNmb3JtPSJ0cmFuc2xhdGUoMjEuNDQyNiwtNTYuODI5NykiPiYjeGE7CQkJPHRpdGxlIGlkPSJ0aXRsZTE2NjQyNiI+Q29udGFpbmVyc184XzwvdGl0bGU+JiN4YTsJCQk8ZyBpZD0ic2hhcGUxMzg3LTE4Ij4mI3hhOwkJCQk8dGl0bGUgaWQ9InRpdGxlMTY2NDI4Ij5TaGVldC4xMzg3PC90aXRsZT4mI3hhOwkJCQk8cGF0aCBpZD0icGF0aDE2NjQzMCIgaW5rc2NhcGU6Y29ubmVjdG9yLWN1cnZhdHVyZT0iMCIgc3R5bGU9ImZpbGw6IzAwQUNEMzsiIGQ9Ik02LjQ0LDkxLjQ5aDAuNjF2Ni40SDYuNDRWOTEuNDl6IE01LjI4LDkxLjQ5ICAgICAgaDAuNjN2Ni40SDUuMjhWOTEuNDl6IE00LjExLDkxLjQ5aDAuNjN2Ni40SDQuMTFWOTEuNDl6IE0yLjk1LDkxLjQ5aDAuNjN2Ni40SDIuOTVMMi45NSw5MS40OXogTTEuNzgsOTEuNDloMC42M3Y2LjRIMS43OCAgICAgIEwxLjc4LDkxLjQ5eiBNMC42NCw5MS40OWgwLjYxdjYuNEgwLjY0TDAuNjQsOTEuNDl6IE0wLDkwLjg1aDcuNjl2Ny42OUgwVjkwLjg1eiIvPiYjeGE7CQkJPC9nPiYjeGE7CQkJPGcgaWQ9InNoYXBlMTM4OC0yMCIgdHJhbnNmb3JtPSJ0cmFuc2xhdGUoOC44NzE5LC04Ljg3MzE3KSI+JiN4YTsJCQkJPHRpdGxlIGlkPSJ0aXRsZTE2NjQzMyI+U2hlZXQuMTM4ODwvdGl0bGU+JiN4YTsJCQkJPHBhdGggaWQ9InBhdGgxNjY0MzUiIGlua3NjYXBlOmNvbm5lY3Rvci1jdXJ2YXR1cmU9IjAiIHN0eWxlPSJmaWxsOiMwMEFDRDM7IiBkPSJNNi40NCw5MS40OWgwLjYxdjYuNDFINi40NFY5MS40OXogICAgICAgTTUuMjgsOTEuNDloMC42M3Y2LjQxSDUuMjhWOTEuNDl6IE00LjExLDkxLjQ5aDAuNjN2Ni40MUg0LjExVjkxLjQ5eiBNMi45NSw5MS40OWgwLjYzdjYuNDFIMi45NUwyLjk1LDkxLjQ5eiBNMS43OCw5MS40OSAgICAgIGgwLjYzdjYuNDFIMS43OEwxLjc4LDkxLjQ5eiBNMC42NCw5MS40OWgwLjYxdjYuNDFIMC42NEwwLjY0LDkxLjQ5eiBNMCw5MC44NWg3LjY5djcuNjlIMFY5MC44NXoiLz4mI3hhOwkJCTwvZz4mI3hhOwkJCTxnIGlkPSJzaGFwZTEzODktMjIiIHRyYW5zZm9ybT0idHJhbnNsYXRlKDguODcxOSkiPiYjeGE7CQkJCTx0aXRsZSBpZD0idGl0bGUxNjY0MzgiPlNoZWV0LjEzODk8L3RpdGxlPiYjeGE7CQkJCTxwYXRoIGlkPSJwYXRoMTY2NDQwIiBpbmtzY2FwZTpjb25uZWN0b3ItY3VydmF0dXJlPSIwIiBzdHlsZT0iZmlsbDojMjBDMkVGOyIgZD0iTTYuNDQsOTEuNDloMC42MXY2LjRINi40NFY5MS40OXogTTUuMjgsOTEuNDkgICAgICBoMC42M3Y2LjRINS4yOFY5MS40OXogTTQuMTEsOTEuNDloMC42M3Y2LjRINC4xMVY5MS40OXogTTIuOTUsOTEuNDloMC42M3Y2LjRIMi45NUwyLjk1LDkxLjQ5eiBNMS43OCw5MS40OWgwLjYzdjYuNEgxLjc4ICAgICAgTDEuNzgsOTEuNDl6IE0wLjY0LDkxLjQ5aDAuNjF2Ni40SDAuNjRMMC42NCw5MS40OXogTTAsOTAuODVoNy42OXY3LjY5SDBWOTAuODV6Ii8+JiN4YTsJCQk8L2c+JiN4YTsJCQk8ZyBpZD0ic2hhcGUxMzkwLTI0IiB0cmFuc2Zvcm09InRyYW5zbGF0ZSgxNy43NDYzKSI+JiN4YTsJCQkJPHRpdGxlIGlkPSJ0aXRsZTE2NjQ0MyI+U2hlZXQuMTM5MDwvdGl0bGU+JiN4YTsJCQkJPHBhdGggaWQ9InBhdGgxNjY0NDUiIGlua3NjYXBlOmNvbm5lY3Rvci1jdXJ2YXR1cmU9IjAiIHN0eWxlPSJmaWxsOiMwMEFDRDM7IiBkPSJNNi40NCw5MS40OWgwLjYxdjYuNEg2LjQ0VjkxLjQ5eiBNNS4yOCw5MS40OSAgICAgIGgwLjYzdjYuNEg1LjI4VjkxLjQ5eiBNNC4xMSw5MS40OWgwLjYzdjYuNEg0LjExVjkxLjQ5eiBNMi45NSw5MS40OWgwLjYzdjYuNEgyLjk1TDIuOTUsOTEuNDl6IE0xLjc4LDkxLjQ5aDAuNjN2Ni40SDEuNzggICAgICBMMS43OCw5MS40OXogTTAuNjQsOTEuNDloMC42MXY2LjRIMC42NEwwLjY0LDkxLjQ5eiBNMCw5MC44NWg3LjY5djcuNjlIMFY5MC44NXoiLz4mI3hhOwkJCTwvZz4mI3hhOwkJCTxnIGlkPSJzaGFwZTEzOTEtMjYiIHRyYW5zZm9ybT0idHJhbnNsYXRlKDE3Ljc0NjMsLTguODczMTcpIj4mI3hhOwkJCQk8dGl0bGUgaWQ9InRpdGxlMTY2NDQ4Ij5TaGVldC4xMzkxPC90aXRsZT4mI3hhOwkJCQk8cGF0aCBpZD0icGF0aDE2NjQ1MCIgaW5rc2NhcGU6Y29ubmVjdG9yLWN1cnZhdHVyZT0iMCIgc3R5bGU9ImZpbGw6IzIwQzJFRjsiIGQ9Ik02LjQ0LDkxLjQ5aDAuNjF2Ni40MUg2LjQ0VjkxLjQ5eiAgICAgICBNNS4yOCw5MS40OWgwLjYzdjYuNDFINS4yOFY5MS40OXogTTQuMTEsOTEuNDloMC42M3Y2LjQxSDQuMTFWOTEuNDl6IE0yLjk1LDkxLjQ5aDAuNjN2Ni40MUgyLjk1TDIuOTUsOTEuNDl6IE0xLjc4LDkxLjQ5ICAgICAgaDAuNjN2Ni40MUgxLjc4TDEuNzgsOTEuNDl6IE0wLjY0LDkxLjQ5aDAuNjF2Ni40MUgwLjY0TDAuNjQsOTEuNDl6IE0wLDkwLjg1aDcuNjl2Ny42OUgwVjkwLjg1eiIvPiYjeGE7CQkJPC9nPiYjeGE7CQkJPGcgaWQ9InNoYXBlMTM5Mi0yOCIgdHJhbnNmb3JtPSJ0cmFuc2xhdGUoMjYuNjE4MikiPiYjeGE7CQkJCTx0aXRsZSBpZD0idGl0bGUxNjY0NTMiPlNoZWV0LjEzOTI8L3RpdGxlPiYjeGE7CQkJCTxwYXRoIGlkPSJwYXRoMTY2NDU1IiBpbmtzY2FwZTpjb25uZWN0b3ItY3VydmF0dXJlPSIwIiBzdHlsZT0iZmlsbDojMjBDMkVGOyIgZD0iTTYuNDQsOTEuNDloMC42MXY2LjRINi40NFY5MS40OXogTTUuMjgsOTEuNDkgICAgICBoMC42M3Y2LjRINS4yOFY5MS40OXogTTQuMTEsOTEuNDloMC42M3Y2LjRINC4xMVY5MS40OXogTTIuOTUsOTEuNDloMC42M3Y2LjRIMi45NUwyLjk1LDkxLjQ5eiBNMS43OCw5MS40OWgwLjYzdjYuNEgxLjc4ICAgICAgTDEuNzgsOTEuNDl6IE0wLjY0LDkxLjQ5aDAuNjF2Ni40SDAuNjRMMC42NCw5MS40OXogTTAsOTAuODVoNy42OXY3LjY5SDBWOTAuODV6Ii8+JiN4YTsJCQk8L2c+JiN4YTsJCQk8ZyBpZD0ic2hhcGUxMzkzLTMwIiB0cmFuc2Zvcm09InRyYW5zbGF0ZSgyNi42MTgyLC04Ljg3MzE3KSI+JiN4YTsJCQkJPHRpdGxlIGlkPSJ0aXRsZTE2NjQ1OCI+U2hlZXQuMTM5MzwvdGl0bGU+JiN4YTsJCQkJPHBhdGggaWQ9InBhdGgxNjY0NjAiIGlua3NjYXBlOmNvbm5lY3Rvci1jdXJ2YXR1cmU9IjAiIHN0eWxlPSJmaWxsOiMwMEFDRDM7IiBkPSJNNi40NCw5MS40OWgwLjYxdjYuNDFINi40NFY5MS40OXogICAgICAgTTUuMjgsOTEuNDloMC42M3Y2LjQxSDUuMjhWOTEuNDl6IE00LjExLDkxLjQ5aDAuNjN2Ni40MUg0LjExVjkxLjQ5eiBNMi45NSw5MS40OWgwLjYzdjYuNDFIMi45NUwyLjk1LDkxLjQ5eiBNMS43OCw5MS40OSAgICAgIGgwLjYzdjYuNDFIMS43OEwxLjc4LDkxLjQ5eiBNMC42NCw5MS40OWgwLjYxdjYuNDFIMC42NEwwLjY0LDkxLjQ5eiBNMCw5MC44NWg3LjY5djcuNjlIMFY5MC44NXoiLz4mI3hhOwkJCTwvZz4mI3hhOwkJCTxnIGlkPSJzaGFwZTEzOTQtMzIiIHRyYW5zZm9ybT0idHJhbnNsYXRlKDI2LjYxODIsLTE3Ljc0NjMpIj4mI3hhOwkJCQk8dGl0bGUgaWQ9InRpdGxlMTY2NDYzIj5TaGVldC4xMzk0PC90aXRsZT4mI3hhOwkJCQk8cGF0aCBpZD0icGF0aDE2NjQ2NSIgaW5rc2NhcGU6Y29ubmVjdG9yLWN1cnZhdHVyZT0iMCIgc3R5bGU9ImZpbGw6IzIwQzJFRjsiIGQ9Ik02LjQ0LDkxLjQ5aDAuNjF2Ni40MUg2LjQ0VjkxLjQ5eiAgICAgICBNNS4yOCw5MS40OWgwLjYzdjYuNDFINS4yOFY5MS40OXogTTQuMTEsOTEuNDloMC42M3Y2LjQxSDQuMTFWOTEuNDl6IE0yLjk1LDkxLjQ5aDAuNjN2Ni40MUgyLjk1TDIuOTUsOTEuNDl6IE0xLjc4LDkxLjQ5ICAgICAgaDAuNjN2Ni40MUgxLjc4TDEuNzgsOTEuNDl6IE0wLjY0LDkxLjQ5aDAuNjF2Ni40MUgwLjY0TDAuNjQsOTEuNDl6IE0wLDkwLjg1aDcuNjl2Ny42OUgwVjkwLjg1eiIvPiYjeGE7CQkJPC9nPiYjeGE7CQkJPGcgaWQ9InNoYXBlMTM5NS0zNCIgdHJhbnNmb3JtPSJ0cmFuc2xhdGUoMzUuNDkxNCkiPiYjeGE7CQkJCTx0aXRsZSBpZD0idGl0bGUxNjY0NjgiPlNoZWV0LjEzOTU8L3RpdGxlPiYjeGE7CQkJCTxwYXRoIGlkPSJwYXRoMTY2NDcwIiBpbmtzY2FwZTpjb25uZWN0b3ItY3VydmF0dXJlPSIwIiBzdHlsZT0iZmlsbDojMDBBQ0QzOyIgZD0iTTYuNDQsOTEuNDloMC42MXY2LjRINi40NFY5MS40OXogTTUuMjgsOTEuNDkgICAgICBoMC42M3Y2LjRINS4yOFY5MS40OXogTTQuMTEsOTEuNDloMC42M3Y2LjRINC4xMVY5MS40OXogTTIuOTUsOTEuNDloMC42M3Y2LjRIMi45NUwyLjk1LDkxLjQ5eiBNMS43OCw5MS40OWgwLjYzdjYuNEgxLjc4ICAgICAgTDEuNzgsOTEuNDl6IE0wLjY0LDkxLjQ5aDAuNjF2Ni40SDAuNjRMMC42NCw5MS40OXogTTAsOTAuODVoNy42OXY3LjY5SDBWOTAuODV6Ii8+JiN4YTsJCQk8L2c+JiN4YTsJCTwvZz4mI3hhOwkJPGcgaWQ9InNoYXBlMTM5Ni0zNiIgdHJhbnNmb3JtPSJ0cmFuc2xhdGUoMzUuNDAyNCwtNDAuMTIpIj4mI3hhOwkJCTx0aXRsZSBpZD0idGl0bGUxNjY0NzQiPlNoZWV0LjEzOTY8L3RpdGxlPiYjeGE7CQkJPHBhdGggaWQ9InBhdGgxNjY0NzYiIGlua3NjYXBlOmNvbm5lY3Rvci1jdXJ2YXR1cmU9IjAiIHN0eWxlPSJmaWxsOiNENEVERjE7IiBkPSJNMi4xMiw5NC4yOWMxLjE3LDAsMi4xMiwwLjk1LDIuMTIsMi4xMiAgICAgYzAsMS4xOC0wLjk1LDIuMTMtMi4xMiwyLjEzUzAsOTcuNTksMCw5Ni40MUMwLDk1LjI0LDAuOTUsOTQuMjksMi4xMiw5NC4yOXoiLz4mI3hhOwkJPC9nPiYjeGE7CQk8ZyBpZD0ic2hhcGUxMzk3LTM4IiB0cmFuc2Zvcm09InRyYW5zbGF0ZSgzNi4wMDQsLTQwLjcyMykiPiYjeGE7CQkJPHRpdGxlIGlkPSJ0aXRsZTE2NjQ3OSI+U2hlZXQuMTM5NzwvdGl0bGU+JiN4YTsJCQk8cGF0aCBpZD0icGF0aDE2NjQ4MSIgaW5rc2NhcGU6Y29ubmVjdG9yLWN1cnZhdHVyZT0iMCIgc3R5bGU9ImZpbGw6IzM5NEQ1NDsiIGQ9Ik0xLjUyLDk1LjVjMC4xOSwwLDAuMzgsMC4wNCwwLjU1LDAuMSAgICAgYy0wLjE5LDAuMTEtMC4zMSwwLjMxLTAuMzEsMC41NGMwLDAuMzQsMC4yOCwwLjYyLDAuNjIsMC42MmMwLjIzLDAsMC40NC0wLjEzLDAuNTQtMC4zM2MwLjA4LDAuMTgsMC4xMiwwLjM4LDAuMTIsMC41OSAgICAgYzAsMC44NC0wLjY4LDEuNTItMS41MiwxLjUyQzAuNjgsOTguNTQsMCw5Ny44NiwwLDk3LjAyUzAuNjgsOTUuNSwxLjUyLDk1LjV6Ii8+JiN4YTsJCTwvZz4mI3hhOwkJPGcgaWQ9InNoYXBlMTM5OC00MCIgdHJhbnNmb3JtPSJ0cmFuc2xhdGUoMCwtNDguMDcyMykiPiYjeGE7CQkJPHRpdGxlIGlkPSJ0aXRsZTE2NjQ4NCI+U2hlZXQuMTM5ODwvdGl0bGU+JiN4YTsJCQk8cGF0aCBpZD0icGF0aDE2NjQ4NiIgaW5rc2NhcGU6Y29ubmVjdG9yLWN1cnZhdHVyZT0iMCIgc3R5bGU9ImZpbGw6IzM5NEQ1NDsiIGQ9Ik0wLDk3Ljg1aDQ2LjQ3aDUuNzVoNDYuNDcgICAgIGMtMi4xNS0wLjU1LTYuOC0xLjI4LTYuMDMtNC4xYy0zLjkxLDQuNTItMTMuMzMsMy4xNy0xNS43MSwwLjk0Yy0yLjY1LDMuODUtMTguMDcsMi4zOS0xOS4xNC0wLjYxYy0zLjMyLDMuOS0xMy42MSwzLjktMTYuOTMsMCAgICAgYy0xLjA4LDIuOTktMTYuNDksNC40NS0xOS4xNCwwLjYxYy0yLjM4LDIuMjMtMTEuOCwzLjU4LTE1LjcxLTAuOTRDNi44LDk2LjU3LDIuMTUsOTcuMywwLDk3Ljg1eiIvPiYjeGE7CQk8L2c+JiN4YTsJCTxnIGlkPSJzaGFwZTEzOTktNDIiIHRyYW5zZm9ybT0idHJhbnNsYXRlKDE5LjAyODUsLTI5LjAyODYpIj4mI3hhOwkJCTx0aXRsZSBpZD0idGl0bGUxNjY0ODkiPlNoZWV0LjEzOTk8L3RpdGxlPiYjeGE7CQkJPHBhdGggaWQ9InBhdGgxNjY0OTEiIGlua3NjYXBlOmNvbm5lY3Rvci1jdXJ2YXR1cmU9IjAiIHN0eWxlPSJmaWxsOiNCRkRCRTA7IiBkPSJNMjQuMTQsOTguNDlDMTguODgsOTYsMTYsOTIuNjEsMTQuMzksODguOTEgICAgIGMtMS45NSwwLjU1LTQuMjksMC45MS03LjAyLDEuMDZjLTEuMDMsMC4wNi0yLjExLDAuMDktMy4yNCwwLjA5Yy0xLjMxLDAtMi42OS0wLjA0LTQuMTMtMC4xMmM0LjgyLDQuODIsMTAuNzUsOC41MywyMS43Miw4LjU5ICAgICBDMjIuNTMsOTguNTQsMjMuMzQsOTguNTIsMjQuMTQsOTguNDl6Ii8+JiN4YTsJCTwvZz4mI3hhOwkJPGcgaWQ9InNoYXBlMTQwMC00NCIgdHJhbnNmb3JtPSJ0cmFuc2xhdGUoMjYuMzk4MiwtMzUuMjQzNCkiPiYjeGE7CQkJPHRpdGxlIGlkPSJ0aXRsZTE2NjQ5NCI+U2hlZXQuMTQwMDwvdGl0bGU+JiN4YTsJCQk8cGF0aCBpZD0icGF0aDE2NjQ5NiIgaW5rc2NhcGU6Y29ubmVjdG9yLWN1cnZhdHVyZT0iMCIgc3R5bGU9ImZpbGw6I0Q0RURGMTsiIGQ9Ik04Ljk3LDk4LjU0Yy0wLjcyLTAuOTktMS40My0yLjIzLTEuOTQtMy40MiAgICAgYy0xLjk2LDAuNTYtNC4zLDAuOTItNy4wMywxLjA3QzEuODcsOTcuMjEsNC41NSw5OC4xNSw4Ljk3LDk4LjU0eiIvPiYjeGE7CQk8L2c+JiN4YTsJPC9nPiYjeGE7PC9nPiYjeGE7PC9zdmc+;" vertex="1" parent="1">
          <mxGeometry x="584" y="1060" width="54.87" height="46" as="geometry" />
        </mxCell>
        <mxCell id="eEPwUyeg-tfcytRayrMm-2157" value="" style="shape=image;verticalLabelPosition=bottom;labelBackgroundColor=#ffffff;verticalAlign=top;aspect=fixed;imageAspect=0;image=data:image/svg+xml,PHN2ZyB4bWxuczpjYz0iaHR0cDovL2NyZWF0aXZlY29tbW9ucy5vcmcvbnMjIiB4bWxuczpkYz0iaHR0cDovL3B1cmwub3JnL2RjL2VsZW1lbnRzLzEuMS8iIHhtbG5zOmlua3NjYXBlPSJodHRwOi8vd3d3Lmlua3NjYXBlLm9yZy9uYW1lc3BhY2VzL2lua3NjYXBlIiB4bWxuczpyZGY9Imh0dHA6Ly93d3cudzMub3JnLzE5OTkvMDIvMjItcmRmLXN5bnRheC1ucyMiIHhtbG5zOnNvZGlwb2RpPSJodHRwOi8vc29kaXBvZGkuc291cmNlZm9yZ2UubmV0L0RURC9zb2RpcG9kaS0wLmR0ZCIgeG1sbnM6c3ZnPSJodHRwOi8vd3d3LnczLm9yZy8yMDAwL3N2ZyIgeG1sbnM9Imh0dHA6Ly93d3cudzMub3JnLzIwMDAvc3ZnIiB4bWxuczp4bGluaz0iaHR0cDovL3d3dy53My5vcmcvMTk5OS94bGluayIgdmVyc2lvbj0iMS4xIiBpZD0ic3ZnMTk4MDc4IiBpbmtzY2FwZTp2ZXJzaW9uPSIwLjkyLjMgKDI0MDU1NDYsIDIwMTgtMDMtMTEpIiBzb2RpcG9kaTpkb2NuYW1lPSJyZXN0LnN2ZyIgeD0iMHB4IiB5PSIwcHgiIHZpZXdCb3g9IjAgMCA1Ny42NSA1Ny42NSIgc3R5bGU9ImVuYWJsZS1iYWNrZ3JvdW5kOm5ldyAwIDAgNTcuNjUgNTcuNjU7IiB4bWw6c3BhY2U9InByZXNlcnZlIj4mI3hhOzxzb2RpcG9kaTpuYW1lZHZpZXcgYm9yZGVyY29sb3I9IiM2NjY2NjYiIGJvcmRlcm9wYWNpdHk9IjEiIGZpdC1tYXJnaW4tYm90dG9tPSIwIiBmaXQtbWFyZ2luLWxlZnQ9IjAiIGZpdC1tYXJnaW4tcmlnaHQ9IjAiIGZpdC1tYXJnaW4tdG9wPSIwIiBncmlkdG9sZXJhbmNlPSIxMCIgZ3VpZGV0b2xlcmFuY2U9IjEwIiBpZD0ibmFtZWR2aWV3MTk4MDgwIiBpbmtzY2FwZTpjdXJyZW50LWxheWVyPSJzdmcxOTgwNzgiIGlua3NjYXBlOmN4PSIzOC40MzAyMyIgaW5rc2NhcGU6Y3k9IjM4LjQzNjQ5NiIgaW5rc2NhcGU6cGFnZW9wYWNpdHk9IjAiIGlua3NjYXBlOnBhZ2VzaGFkb3c9IjIiIGlua3NjYXBlOndpbmRvdy1oZWlnaHQ9IjEwMTciIGlua3NjYXBlOndpbmRvdy1tYXhpbWl6ZWQ9IjEiIGlua3NjYXBlOndpbmRvdy13aWR0aD0iMTkyMCIgaW5rc2NhcGU6d2luZG93LXg9Ii04IiBpbmtzY2FwZTp3aW5kb3cteT0iLTgiIGlua3NjYXBlOnpvb209IjguOTE0MjA2OSIgb2JqZWN0dG9sZXJhbmNlPSIxMCIgcGFnZWNvbG9yPSIjZmZmZmZmIiBzaG93Z3JpZD0iZmFsc2UiPiYjeGE7CTwvc29kaXBvZGk6bmFtZWR2aWV3PiYjeGE7PGcgaWQ9ImcxOTgwNzYiIHRyYW5zZm9ybT0idHJhbnNsYXRlKC03LjY1LC03LjY1MDAwMTEpIj4mI3hhOwk8dGl0bGUgaWQ9InRpdGxlMTk4MDM4Ij5QYWdlLTE8L3RpdGxlPiYjeGE7CTxnIGlkPSJncm91cDEwNjktMSIgdHJhbnNmb3JtPSJ0cmFuc2xhdGUoNy42NSwtNy42NSkiPiYjeGE7CQk8dGl0bGUgaWQ9InRpdGxlMTk4MDQwIj5SRVNUPC90aXRsZT4mI3hhOwkJPGcgaWQ9InNoYXBlMTA3MC0yIj4mI3hhOwkJCTx0aXRsZSBpZD0idGl0bGUxOTgwNDIiPlNoZWV0LjEwNzA8L3RpdGxlPiYjeGE7CQkJPGNpcmNsZSBpZD0iZWxsaXBzZTE5ODA0NCIgc3R5bGU9ImZpbGw6IzEwN0MxMDsiIGN4PSIyOC44MiIgY3k9IjQ0LjEyIiByPSIyOC44MiIvPiYjeGE7CQk8L2c+JiN4YTsJCTxnIGlkPSJzaGFwZTEwNzEtNCI+JiN4YTsJCQk8dGl0bGUgaWQ9InRpdGxlMTk4MDQ3Ij5TaGVldC4xMDcxPC90aXRsZT4mI3hhOwkJCTxwYXRoIGlkPSJwYXRoMTk4MDQ5IiBpbmtzY2FwZTpjb25uZWN0b3ItY3VydmF0dXJlPSIwIiBzdHlsZT0iZmlsbDojMDA0QjFDOyIgZD0iTTguODYsMjMuMzdDMy4zOSwyOC42MywwLDM1Ljk4LDAsNDQuMTIgICAgIGMwLDE1LjkzLDEyLjksMjguODMsMjguODIsMjguODNjOC4xNSwwLDE1LjQ5LTMuMzksMjAuNzUtOC44N0w4Ljg2LDIzLjM3eiIvPiYjeGE7CQk8L2c+JiN4YTsJCTxnIGlkPSJncm91cDEwNzItNiIgdHJhbnNmb3JtPSJ0cmFuc2xhdGUoNi42NzI0NCwtMjAuOTk4NykiPiYjeGE7CQkJPHRpdGxlIGlkPSJ0aXRsZTE5ODA1MiI+U2hlZXQuMTA3MjwvdGl0bGU+JiN4YTsJCQk8ZyBpZD0ic2hhcGUxMDczLTciIHRyYW5zZm9ybT0idHJhbnNsYXRlKDAsLTAuMjU1ODAxKSI+JiN4YTsJCQkJPHRpdGxlIGlkPSJ0aXRsZTE5ODA1NCI+U2hlZXQuMTA3MzwvdGl0bGU+JiN4YTsJCQkJPHBhdGggaWQ9InBhdGgxOTgwNTYiIGlua3NjYXBlOmNvbm5lY3Rvci1jdXJ2YXR1cmU9IjAiIHN0eWxlPSJmaWxsOiNGRkZGRkY7IiBkPSJNMTAuODUsNzIuOTVIOC43NEw2LjIxLDY4LjcgICAgICBjLTAuMjQtMC4zOS0wLjQ2LTAuNzMtMC42OC0xLjAxYy0wLjIyLTAuMjctMC40NC0wLjUtMC42Ny0wLjY4Yy0wLjIzLTAuMTctMC40Ny0wLjMtMC43NC0wLjM4Yy0wLjI2LTAuMDgtMC41Ni0wLjEyLTAuODktMC4xMiAgICAgIEgxLjc3djYuNDRIMFY1Ny44MWg0LjUyYzAuNjYsMCwxLjI3LDAuMDgsMS44MywwLjI1YzAuNTYsMC4xNiwxLjA0LDAuNDEsMS40NiwwLjc1YzAuNDEsMC4zNCwwLjczLDAuNzYsMC45NiwxLjI2ICAgICAgYzAuMjMsMC41MSwwLjM1LDEuMDksMC4zNSwxLjc3YzAsMC41My0wLjA4LDEuMDEtMC4yNCwxLjQ1Yy0wLjE2LDAuNDQtMC4zOCwwLjgzLTAuNjcsMS4xOGMtMC4zLDAuMzQtMC42NSwwLjY0LTEuMDYsMC44OCAgICAgIHMtMC44NywwLjQzLTEuMzksMC41NnYwLjA1YzAuMjYsMC4xMSwwLjQ4LDAuMjQsMC42NiwwLjM4YzAuMTksMC4xNSwwLjM3LDAuMzIsMC41NCwwLjUxYzAuMTYsMC4yLDAuMzMsMC40MiwwLjUsMC42NyAgICAgIGMwLjE2LDAuMjUsMC4zNSwwLjU0LDAuNTUsMC44OEwxMC44NSw3Mi45NXogTTEuNzcsNTkuNDF2NS40OWgyLjQxYzAuNDQsMCwwLjg1LTAuMDcsMS4yMy0wLjJzMC43LTAuMzIsMC45OC0wLjU3ICAgICAgYzAuMjctMC4yNSwwLjQ5LTAuNTYsMC42NC0wLjkyYzAuMTYtMC4zNiwwLjIzLTAuNzcsMC4yMy0xLjIyYzAtMC44MS0wLjI2LTEuNDQtMC43OC0xLjljLTAuNTMtMC40NS0xLjI5LTAuNjgtMi4yOC0wLjY4SDEuNzd6ICAgICAgIi8+JiN4YTsJCQk8L2c+JiN4YTsJCQk8ZyBpZD0ic2hhcGUxMDc0LTkiIHRyYW5zZm9ybT0idHJhbnNsYXRlKDEyLjkzMDYsLTAuMjU1ODAxKSI+JiN4YTsJCQkJPHRpdGxlIGlkPSJ0aXRsZTE5ODA1OSI+U2hlZXQuMTA3NDwvdGl0bGU+JiN4YTsJCQkJPHBhdGggaWQ9InBhdGgxOTgwNjEiIGlua3NjYXBlOmNvbm5lY3Rvci1jdXJ2YXR1cmU9IjAiIHN0eWxlPSJmaWxsOiNGRkZGRkY7IiBkPSJNOC4wMiw3Mi45NUgwVjU3LjgxaDcuNjh2MS42SDEuNzd2NS4wNGg1LjQ3ICAgICAgdjEuNTlIMS43N3Y1LjNoNi4yNVY3Mi45NXoiLz4mI3hhOwkJCTwvZz4mI3hhOwkJCTxnIGlkPSJzaGFwZTEwNzUtMTEiIHRyYW5zZm9ybT0idHJhbnNsYXRlKDIzLjE1ODMpIj4mI3hhOwkJCQk8dGl0bGUgaWQ9InRpdGxlMTk4MDY0Ij5TaGVldC4xMDc1PC90aXRsZT4mI3hhOwkJCQk8cGF0aCBpZD0icGF0aDE5ODA2NiIgaW5rc2NhcGU6Y29ubmVjdG9yLWN1cnZhdHVyZT0iMCIgc3R5bGU9ImZpbGw6I0ZGRkZGRjsiIGQ9Ik0wLDcyLjA4di0yLjA5YzAuMjQsMC4yMSwwLjUzLDAuNCwwLjg2LDAuNTcgICAgICBzMC42OSwwLjMxLDEuMDYsMC40M2MwLjM3LDAuMTEsMC43NCwwLjIsMS4xMSwwLjI2YzAuMzcsMC4wNywwLjcyLDAuMSwxLjAzLDAuMWMxLjA5LDAsMS45MS0wLjIsMi40NS0wLjYxICAgICAgYzAuNTQtMC40LDAuODEtMC45OCwwLjgxLTEuNzRjMC0wLjQxLTAuMDktMC43Ny0wLjI3LTEuMDdjLTAuMTgtMC4zLTAuNDMtMC41OC0wLjc1LTAuODNjLTAuMzItMC4yNS0wLjY5LTAuNDktMS4xMi0wLjcyICAgICAgYy0wLjQ0LTAuMjItMC45LTAuNDctMS40LTAuNzJjLTAuNTMtMC4yNy0xLjAyLTAuNTQtMS40OC0wLjgxYy0wLjQ2LTAuMjgtMC44NS0wLjU4LTEuMTktMC45MXMtMC42LTAuNzEtMC44LTEuMTIgICAgICBjLTAuMTktMC40Mi0wLjI5LTAuOTEtMC4yOS0xLjQ4YzAtMC42OSwwLjE1LTEuMjksMC40NS0xLjhjMC4zMS0wLjUxLDAuNzEtMC45MywxLjItMS4yNmMwLjQ5LTAuMzMsMS4wNS0wLjU3LDEuNjgtMC43NCAgICAgIGMwLjYzLTAuMTYsMS4yNy0wLjI0LDEuOTMtMC4yNGMxLjQ5LDAsMi41OCwwLjE4LDMuMjYsMC41NHYyYy0wLjktMC42Mi0yLjA0LTAuOTMtMy40NC0wLjkzYy0wLjM5LDAtMC43OCwwLjA0LTEuMTYsMC4xMiAgICAgIGMtMC4zOSwwLjA4LTAuNzQsMC4yMS0xLjA0LDAuMzljLTAuMywwLjE5LTAuNTUsMC40Mi0wLjc0LDAuNzFzLTAuMjgsMC42NC0wLjI4LDEuMDZjMCwwLjM4LDAuMDcsMC43MiwwLjIxLDEgICAgICBjMC4xNSwwLjI4LDAuMzYsMC41NCwwLjY0LDAuNzdzMC42MywwLjQ2LDEuMDMsMC42N2MwLjQxLDAuMjIsMC44NywwLjQ2LDEuNCwwLjcyQzUuNyw2NC42Miw2LjIyLDY0LjksNi43LDY1LjIgICAgICBjMC40OSwwLjI5LDAuOTEsMC42MiwxLjI4LDAuOThjMC4zNiwwLjM2LDAuNjUsMC43NiwwLjg3LDEuMTljMC4yMSwwLjQ0LDAuMzIsMC45NCwwLjMyLDEuNWMwLDAuNzUtMC4xNSwxLjM4LTAuNDQsMS44OSAgICAgIGMtMC4yOSwwLjUyLTAuNjgsMC45NC0xLjE4LDEuMjdjLTAuNSwwLjMyLTEuMDcsMC41NS0xLjcxLDAuN2MtMC42NSwwLjE0LTEuMzQsMC4yMi0yLjA1LDAuMjJjLTAuMjQsMC0wLjU0LTAuMDItMC44OS0wLjA2ICAgICAgcy0wLjcxLTAuMS0xLjA4LTAuMTdjLTAuMzYtMC4wOC0wLjcxLTAuMTctMS4wNC0wLjI4QzAuNDYsNzIuMzMsMC4yLDcyLjIxLDAsNzIuMDh6Ii8+JiN4YTsJCQk8L2c+JiN4YTsJCQk8ZyBpZD0ic2hhcGUxMDc2LTEzIiB0cmFuc2Zvcm09InRyYW5zbGF0ZSgzMy43OTgxLC0wLjI1NTgwMSkiPiYjeGE7CQkJCTx0aXRsZSBpZD0idGl0bGUxOTgwNjkiPlNoZWV0LjEwNzY8L3RpdGxlPiYjeGE7CQkJCTxwYXRoIGlkPSJwYXRoMTk4MDcxIiBpbmtzY2FwZTpjb25uZWN0b3ItY3VydmF0dXJlPSIwIiBzdHlsZT0iZmlsbDojRkZGRkZGOyIgZD0iTTEwLjUsNTkuNDFINi4xM3YxMy41NEg0LjM2VjU5LjQxSDB2LTEuNiAgICAgIGgxMC41VjU5LjQxeiIvPiYjeGE7CQkJPC9nPiYjeGE7CQk8L2c+JiN4YTsJPC9nPiYjeGE7PC9nPiYjeGE7PC9zdmc+;" vertex="1" parent="1">
          <mxGeometry x="662" y="1056" width="44" height="44" as="geometry" />
        </mxCell>
        <mxCell id="eEPwUyeg-tfcytRayrMm-2158" value="" style="shape=image;verticalLabelPosition=bottom;labelBackgroundColor=#ffffff;verticalAlign=top;aspect=fixed;imageAspect=0;image=data:image/svg+xml,PHN2ZyB4bWxuczpjYz0iaHR0cDovL2NyZWF0aXZlY29tbW9ucy5vcmcvbnMjIiB4bWxuczpkYz0iaHR0cDovL3B1cmwub3JnL2RjL2VsZW1lbnRzLzEuMS8iIHhtbG5zOmlua3NjYXBlPSJodHRwOi8vd3d3Lmlua3NjYXBlLm9yZy9uYW1lc3BhY2VzL2lua3NjYXBlIiB4bWxuczpyZGY9Imh0dHA6Ly93d3cudzMub3JnLzE5OTkvMDIvMjItcmRmLXN5bnRheC1ucyMiIHhtbG5zOnNvZGlwb2RpPSJodHRwOi8vc29kaXBvZGkuc291cmNlZm9yZ2UubmV0L0RURC9zb2RpcG9kaS0wLmR0ZCIgeG1sbnM6c3ZnPSJodHRwOi8vd3d3LnczLm9yZy8yMDAwL3N2ZyIgeG1sbnM9Imh0dHA6Ly93d3cudzMub3JnLzIwMDAvc3ZnIiB4bWxuczp4bGluaz0iaHR0cDovL3d3dy53My5vcmcvMTk5OS94bGluayIgdmVyc2lvbj0iMS4xIiBpZD0ic3ZnMjA5NjE3IiBpbmtzY2FwZTp2ZXJzaW9uPSIwLjkyLjMgKDI0MDU1NDYsIDIwMTgtMDMtMTEpIiBzb2RpcG9kaTpkb2NuYW1lPSJzd2FnZ2VyLnN2ZyIgeD0iMHB4IiB5PSIwcHgiIHZpZXdCb3g9IjAgMCA3Ni41IDc1LjYzIiBzdHlsZT0iZW5hYmxlLWJhY2tncm91bmQ6bmV3IDAgMCA3Ni41IDc1LjYzOyIgeG1sOnNwYWNlPSJwcmVzZXJ2ZSI+JiN4YTs8c29kaXBvZGk6bmFtZWR2aWV3IGJvcmRlcmNvbG9yPSIjNjY2NjY2IiBib3JkZXJvcGFjaXR5PSIxIiBmaXQtbWFyZ2luLWJvdHRvbT0iMCIgZml0LW1hcmdpbi1sZWZ0PSIwIiBmaXQtbWFyZ2luLXJpZ2h0PSIwIiBmaXQtbWFyZ2luLXRvcD0iMCIgZ3JpZHRvbGVyYW5jZT0iMTAiIGd1aWRldG9sZXJhbmNlPSIxMCIgaWQ9Im5hbWVkdmlldzIwOTYxOSIgaW5rc2NhcGU6Y3VycmVudC1sYXllcj0ic3ZnMjA5NjE3IiBpbmtzY2FwZTpjeD0iNTEiIGlua3NjYXBlOmN5PSI1MC40MjEyNjEiIGlua3NjYXBlOnBhZ2VvcGFjaXR5PSIwIiBpbmtzY2FwZTpwYWdlc2hhZG93PSIyIiBpbmtzY2FwZTp3aW5kb3ctaGVpZ2h0PSIxMDE3IiBpbmtzY2FwZTp3aW5kb3ctbWF4aW1pemVkPSIxIiBpbmtzY2FwZTp3aW5kb3ctd2lkdGg9IjE5MjAiIGlua3NjYXBlOndpbmRvdy14PSItOCIgaW5rc2NhcGU6d2luZG93LXk9Ii04IiBpbmtzY2FwZTp6b29tPSI4LjU5Nzk5NjkiIG9iamVjdHRvbGVyYW5jZT0iMTAiIHBhZ2Vjb2xvcj0iI2ZmZmZmZiIgc2hvd2dyaWQ9ImZhbHNlIj4mI3hhOwk8L3NvZGlwb2RpOm5hbWVkdmlldz4mI3hhOzxnIGlkPSJzaGFwZTEwOTEtMiI+JiN4YTsJPHRpdGxlIGlkPSJ0aXRsZTIwOTU4NCI+U2hlZXQuMTA5MTwvdGl0bGU+JiN4YTsJPHBhdGggaWQ9InBhdGgyMDk1ODYiIGlua3NjYXBlOmNvbm5lY3Rvci1jdXJ2YXR1cmU9IjAiIHN0eWxlPSJmaWxsOiM2RDlFMDA7IiBkPSJNMCwzNy44MUMwLDE2Ljk0LDE3LjEzLDAsMzguMjUsMCAgIEM1OS40MiwwLDc2LjUsMTYuOTQsNzYuNSwzNy44MWMwLDIwLjkzLTE3LjA4LDM3LjgyLTM4LjI1LDM3LjgyQzE3LjEzLDc1LjYzLDAsNTguNzQsMCwzNy44MXoiLz4mI3hhOzwvZz4mI3hhOzxnIGlkPSJzaGFwZTEwOTItNCIgdHJhbnNmb3JtPSJ0cmFuc2xhdGUoMjQuMDQ2MSwtMzQuMjk4NCkiPiYjeGE7CTx0aXRsZSBpZD0idGl0bGUyMDk1ODkiPlNoZWV0LjEwOTI8L3RpdGxlPiYjeGE7CTxwYXRoIGlkPSJwYXRoMjA5NTkxIiBpbmtzY2FwZTpjb25uZWN0b3ItY3VydmF0dXJlPSIwIiBzdHlsZT0iZmlsbDojRkZGRkZGOyIgZD0iTTYuNjksNzIuMjhjMCwxLjgxLTEuNTMsMy4zNS0zLjM0LDMuMzUgICBDMS4zOSw3NS42MywwLDc0LjA5LDAsNzIuMjhzMS41My0zLjM1LDMuMzUtMy4zNUM1LjE2LDY4LjkzLDYuNjksNzAuMzMsNi42OSw3Mi4yOHoiLz4mI3hhOzwvZz4mI3hhOzxnIGlkPSJzaGFwZTEwOTMtNiIgdHJhbnNmb3JtPSJ0cmFuc2xhdGUoMzQuMDg2NywtMzQuMjk4NCkiPiYjeGE7CTx0aXRsZSBpZD0idGl0bGUyMDk1OTQiPlNoZWV0LjEwOTM8L3RpdGxlPiYjeGE7CTxjaXJjbGUgaWQ9ImVsbGlwc2UyMDk1OTYiIHN0eWxlPSJmaWxsOiNGRkZGRkY7IiBjeD0iMy4zNSIgY3k9IjcyLjI4IiByPSIzLjM1Ii8+JiN4YTs8L2c+JiN4YTs8ZyBpZD0ic2hhcGUxMDk0LTgiIHRyYW5zZm9ybT0idHJhbnNsYXRlKDQ0LjEyNzQsLTM0LjI5ODQpIj4mI3hhOwk8dGl0bGUgaWQ9InRpdGxlMjA5NTk5Ij5TaGVldC4xMDk0PC90aXRsZT4mI3hhOwk8Y2lyY2xlIGlkPSJlbGxpcHNlMjA5NjAxIiBzdHlsZT0iZmlsbDojRkZGRkZGOyIgY3g9IjMuMzUiIGN5PSI3Mi4yOCIgcj0iMy4zNSIvPiYjeGE7PC9nPiYjeGE7PGcgaWQ9InNoYXBlMTA5NS0xMCIgdHJhbnNmb3JtPSJ0cmFuc2xhdGUoMTIuNTcxMSwtMTUuNjQ4NykiPiYjeGE7CTx0aXRsZSBpZD0idGl0bGUyMDk2MDQiPlNoZWV0LjEwOTU8L3RpdGxlPiYjeGE7CTxwYXRoIGlkPSJwYXRoMjA5NjA2IiBpbmtzY2FwZTpjb25uZWN0b3ItY3VydmF0dXJlPSIwIiBzdHlsZT0iZmlsbDojRkZGRkZGOyIgZD0iTTMuNTgsNDAuNTh2NS42NGMwLDMuMjEtMS4xOSw0LjgyLTMuNTgsNC44MiAgIHY0LjY1YzIuMzksMCwzLjU4LDEuNTUsMy41OCw0LjY1djYuMDdjMCwzLjE2LDAuNjYsNS40NSwxLjk2LDYuODRjMS40OSwxLjU5LDQuMTEsMi4zOCw3Ljg1LDIuMzhWNzAuOWMtMS4zNCwwLTIuMy0wLjM0LTIuODktMS4wMyAgIGMtMC41OS0wLjY5LTAuODgtMS44Ni0wLjg4LTMuNTF2LTUuMThjMC00LjEzLTEuMjEtNi43Mi0zLjYzLTcuNzZ2LTAuMWMyLjQyLTEuMDYsMy42My0zLjYxLDMuNjMtNy42NnYtNS4zOCAgIGMwLTIuOTMsMS4yNS00LjQsMy43Ny00LjR2LTQuNzJjLTMuNjgsMC02LjI3LDAuNzktNy43OCwyLjM4QzQuMjYsMzQuOTYsMy41OCwzNy4zMSwzLjU4LDQwLjU4eiIvPiYjeGE7PC9nPiYjeGE7PGcgaWQ9InNoYXBlMTA5Ni0xMiIgdHJhbnNmb3JtPSJyb3RhdGUoMTgwLDMyLjUxMjUsNDUuNTY5NDUpIj4mI3hhOwk8dGl0bGUgaWQ9InRpdGxlMjA5NjA5Ij5TaGVldC4xMDk2PC90aXRsZT4mI3hhOwk8cGF0aCBpZD0icGF0aDIwOTYxMSIgaW5rc2NhcGU6Y29ubmVjdG9yLWN1cnZhdHVyZT0iMCIgc3R5bGU9ImZpbGw6I0ZGRkZGRjsiIGQ9Ik0zLjU4LDQwLjU4djUuNjRjMCwzLjIxLTEuMTksNC44Mi0zLjU4LDQuODIgICB2NC42NWMyLjM5LDAsMy41OCwxLjU1LDMuNTgsNC42NXY2LjA3YzAsMy4xNiwwLjY2LDUuNDUsMS45Niw2Ljg0YzEuNDksMS41OSw0LjExLDIuMzgsNy44NSwyLjM4VjcwLjljLTEuMzQsMC0yLjMtMC4zNC0yLjg5LTEuMDMgICBjLTAuNTktMC42OS0wLjg4LTEuODYtMC44OC0zLjUxdi01LjE4YzAtNC4xMy0xLjIxLTYuNzItMy42My03Ljc2di0wLjFjMi40Mi0xLjA2LDMuNjMtMy42MSwzLjYzLTcuNjZ2LTUuMzggICBjMC0yLjkzLDEuMjUtNC40LDMuNzctNC40di00LjcyYy0zLjY4LDAtNi4yNywwLjc5LTcuNzgsMi4zOEM0LjI2LDM0Ljk2LDMuNTgsMzcuMzEsMy41OCw0MC41OHoiLz4mI3hhOzwvZz4mI3hhOzwvc3ZnPg==;" vertex="1" parent="1">
          <mxGeometry x="734" y="1060" width="42.56" height="42" as="geometry" />
        </mxCell>
        <mxCell id="eEPwUyeg-tfcytRayrMm-2159" value="" style="shape=image;verticalLabelPosition=bottom;labelBackgroundColor=#ffffff;verticalAlign=top;aspect=fixed;imageAspect=0;image=data:image/svg+xml,PHN2ZyB4bWxuczpjYz0iaHR0cDovL2NyZWF0aXZlY29tbW9ucy5vcmcvbnMjIiB4bWxuczpkYz0iaHR0cDovL3B1cmwub3JnL2RjL2VsZW1lbnRzLzEuMS8iIHhtbG5zOmlua3NjYXBlPSJodHRwOi8vd3d3Lmlua3NjYXBlLm9yZy9uYW1lc3BhY2VzL2lua3NjYXBlIiB4bWxuczpyZGY9Imh0dHA6Ly93d3cudzMub3JnLzE5OTkvMDIvMjItcmRmLXN5bnRheC1ucyMiIHhtbG5zOnNvZGlwb2RpPSJodHRwOi8vc29kaXBvZGkuc291cmNlZm9yZ2UubmV0L0RURC9zb2RpcG9kaS0wLmR0ZCIgeG1sbnM6c3ZnPSJodHRwOi8vd3d3LnczLm9yZy8yMDAwL3N2ZyIgeG1sbnM9Imh0dHA6Ly93d3cudzMub3JnLzIwMDAvc3ZnIiB4bWxuczp4bGluaz0iaHR0cDovL3d3dy53My5vcmcvMTk5OS94bGluayIgdmVyc2lvbj0iMS4xIiBpZD0ic3ZnMTc1NjcxIiBpbmtzY2FwZTp2ZXJzaW9uPSIwLjkyLjMgKDI0MDU1NDYsIDIwMTgtMDMtMTEpIiBzb2RpcG9kaTpkb2NuYW1lPSJnaXRodWIuc3ZnIiB4PSIwcHgiIHk9IjBweCIgdmlld0JveD0iMCAwIDQ1LjI3IDQ1LjI5IiBzdHlsZT0iZW5hYmxlLWJhY2tncm91bmQ6bmV3IDAgMCA0NS4yNyA0NS4yOTsiIHhtbDpzcGFjZT0icHJlc2VydmUiPiYjeGE7PHNvZGlwb2RpOm5hbWVkdmlldyBib3JkZXJjb2xvcj0iIzY2NjY2NiIgYm9yZGVyb3BhY2l0eT0iMSIgZml0LW1hcmdpbi1ib3R0b209IjAiIGZpdC1tYXJnaW4tbGVmdD0iMCIgZml0LW1hcmdpbi1yaWdodD0iMCIgZml0LW1hcmdpbi10b3A9IjAiIGdyaWR0b2xlcmFuY2U9IjEwIiBndWlkZXRvbGVyYW5jZT0iMTAiIGlkPSJuYW1lZHZpZXcxNzU2NzMiIGlua3NjYXBlOmN1cnJlbnQtbGF5ZXI9InN2ZzE3NTY3MSIgaW5rc2NhcGU6Y3g9IjMwLjE3ODAyNSIgaW5rc2NhcGU6Y3k9IjMwLjE5NDMxOSIgaW5rc2NhcGU6cGFnZW9wYWNpdHk9IjAiIGlua3NjYXBlOnBhZ2VzaGFkb3c9IjIiIGlua3NjYXBlOndpbmRvdy1oZWlnaHQ9IjEwMTciIGlua3NjYXBlOndpbmRvdy1tYXhpbWl6ZWQ9IjEiIGlua3NjYXBlOndpbmRvdy13aWR0aD0iMTkyMCIgaW5rc2NhcGU6d2luZG93LXg9Ii04IiBpbmtzY2FwZTp3aW5kb3cteT0iLTgiIGlua3NjYXBlOnpvb209IjEwLjA5NTE1OCIgb2JqZWN0dG9sZXJhbmNlPSIxMCIgcGFnZWNvbG9yPSIjZmZmZmZmIiBzaG93Z3JpZD0iZmFsc2UiPiYjeGE7CTwvc29kaXBvZGk6bmFtZWR2aWV3PiYjeGE7PGcgaWQ9ImcxNzU2NjkiIHRyYW5zZm9ybT0idHJhbnNsYXRlKC05LjU2MjU0MTcsLTkuNTYxMzEpIj4mI3hhOwk8dGl0bGUgaWQ9InRpdGxlMTc1NjU5Ij5QYWdlLTE8L3RpdGxlPiYjeGE7CTxnIGlkPSJncm91cDIyNTAtMSIgdHJhbnNmb3JtPSJ0cmFuc2xhdGUoOS41NjMwOCwtOS4zNzg2OSkiPiYjeGE7CQk8dGl0bGUgaWQ9InRpdGxlMTc1NjYxIj5HaXRIdWI8L3RpdGxlPiYjeGE7CQk8ZyBpZD0ic2hhcGUyMjUxLTIiPiYjeGE7CQkJPHRpdGxlIGlkPSJ0aXRsZTE3NTY2MyI+U2hlZXQuMjI1MTwvdGl0bGU+JiN4YTsJCQk8cGF0aCBpZD0icGF0aDE3NTY2NSIgaW5rc2NhcGU6Y29ubmVjdG9yLWN1cnZhdHVyZT0iMCIgZD0iTTIyLjYzLDE4Ljk0QzEwLjE0LDE4Ljk0LDAsMjkuMzMsMCw0Mi4xNSAgICAgYy0wLjA3LDkuODksNi4xNSwxOC43MywxNS40OCwyMi4wMWMxLjEzLDAuMjIsMS41NC0wLjUsMS41NC0xLjExYzAtMC42MiwwLTIuMDEsMC0zLjk1Yy02LjI5LDEuNDEtNy42Mi0zLjExLTcuNjItMy4xMSAgICAgYy0xLjAzLTIuNjgtMi41MS0zLjQtMi41MS0zLjRjLTIuMDYtMS40MSwwLjE1LTEuNDEsMC4xNS0xLjQxYzIuMjcsMC4xNiwzLjQ3LDIuMzksMy40NywyLjM5YzIuMDIsMy41NCw1LjMsMi41Miw2LjU4LDEuOTMgICAgIGMwLjEtMS4xNywwLjYtMi4yNiwxLjQyLTMuMUMxMy40OCw1MS44MSw4LjIsNDkuODIsOC4yLDQwLjkyYy0wLjA0LTIuMjksMC43OS00LjUxLDIuMzItNi4yMmMtMC42OS0yLTAuNjEtNC4xOSwwLjIyLTYuMTQgICAgIGMwLDAsMS45MS0wLjYyLDYuMjMsMi40YzMuNy0xLjA0LDcuNjItMS4wNCwxMS4zMiwwYzQuMzItMyw2LjIyLTIuMzcsNi4yMi0yLjM3YzAuODMsMS45NSwwLjkxLDQuMTQsMC4yMiw2LjE0ICAgICBjMS41MywxLjcsMi4zNywzLjkzLDIuMzMsNi4yMmMwLDguOTEtNS4yOSwxMC44OC0xMC4zMywxMS40NWMwLjgxLDAuNzEsMS41MywyLjEyLDEuNTMsNC4zYzAsMy4xMSwwLDUuNjEsMCw2LjM3ICAgICBjMCwwLjYyLDAuNDEsMS4zNCwxLjU2LDEuMTJjOS4zMy0zLjMsMTUuNTMtMTIuMTUsMTUuNDUtMjIuMDRDNDUuMjcsMjkuMzMsMzUuMTMsMTguOTQsMjIuNjMsMTguOTR6Ii8+JiN4YTsJCTwvZz4mI3hhOwk8L2c+JiN4YTs8L2c+JiN4YTs8L3N2Zz4=;" vertex="1" parent="1">
          <mxGeometry x="800" y="1061" width="39" height="39" as="geometry" />
        </mxCell>
        <mxCell id="eEPwUyeg-tfcytRayrMm-2160" value="" style="shape=image;verticalLabelPosition=bottom;labelBackgroundColor=default;verticalAlign=top;aspect=fixed;imageAspect=0;image=https://cdn.pvs-studio.com/static/images/logo/sonar_qube.png;" vertex="1" parent="1">
          <mxGeometry x="862" y="1055" width="78.9" height="52" as="geometry" />
        </mxCell>
        <mxCell id="eEPwUyeg-tfcytRayrMm-2164" value="" style="shape=image;verticalLabelPosition=bottom;labelBackgroundColor=default;verticalAlign=top;aspect=fixed;imageAspect=0;image=https://cdn.iconscout.com/icon/free/png-256/mongodb-5-1175140.png;" vertex="1" parent="1">
          <mxGeometry x="967" y="1043" width="70" height="70" as="geometry" />
        </mxCell>
        <mxCell id="eEPwUyeg-tfcytRayrMm-2167" value="" style="shape=image;verticalLabelPosition=bottom;labelBackgroundColor=default;verticalAlign=top;aspect=fixed;imageAspect=0;image=https://upload.wikimedia.org/wikipedia/commons/thumb/5/53/Apache_kafka_wordtype.svg/2560px-Apache_kafka_wordtype.svg.png;" vertex="1" parent="1">
          <mxGeometry x="1054" y="1061.13" width="91.74" height="45.87" as="geometry" />
        </mxCell>
      </root>
    </mxGraphModel>
  </diagram>
</mxfile>
